<?xml version="1.0" encoding="utf-8" standalone="no"?>
<!DOCTYPE svg PUBLIC "-//W3C//DTD SVG 1.1//EN"
  "http://www.w3.org/Graphics/SVG/1.1/DTD/svg11.dtd">
<!-- Created with matplotlib (http://matplotlib.org/) -->
<svg height="345.6pt" version="1.1" viewBox="0 0 460.8 345.6" width="460.8pt" xmlns="http://www.w3.org/2000/svg" xmlns:xlink="http://www.w3.org/1999/xlink">
 <defs>
  <style type="text/css">
*{stroke-linecap:butt;stroke-linejoin:round;}
  </style>
 </defs>
 <g id="figure_1">
  <g id="patch_1">
   <path d="M 0 345.6 
L 460.8 345.6 
L 460.8 0 
L 0 0 
z
" style="fill:#ffffff;"/>
  </g>
  <g id="axes_1">
   <g id="patch_2">
    <path d="M 50.87 260.517286 
L 435.366283 260.517286 
L 435.366283 22.56 
L 50.87 22.56 
z
" style="fill:#ffffff;"/>
   </g>
   <g id="matplotlib.axis_1">
    <g id="xtick_1">
     <g id="line2d_1">
      <defs>
       <path d="M 0 0 
L 0 3.5 
" id="mccdb5a4507" style="stroke:#000000;stroke-width:0.8;"/>
      </defs>
      <g>
       <use style="stroke:#000000;stroke-width:0.8;" x="63.686543" xlink:href="#mccdb5a4507" y="260.517286"/>
      </g>
     </g>
     <g id="text_1">
      <!-- All -->
      <defs>
       <path d="M 34.1875 63.1875 
L 20.796875 26.90625 
L 47.609375 26.90625 
z
M 28.609375 72.90625 
L 39.796875 72.90625 
L 67.578125 0 
L 57.328125 0 
L 50.6875 18.703125 
L 17.828125 18.703125 
L 11.1875 0 
L 0.78125 0 
z
" id="DejaVuSans-41"/>
       <path d="M 9.421875 75.984375 
L 18.40625 75.984375 
L 18.40625 0 
L 9.421875 0 
z
" id="DejaVuSans-6c"/>
      </defs>
      <g transform="translate(61.254758 281.656107)rotate(-45)scale(0.1 -0.1)">
       <use xlink:href="#DejaVuSans-41"/>
       <use x="68.408203" xlink:href="#DejaVuSans-6c"/>
       <use x="96.191406" xlink:href="#DejaVuSans-6c"/>
      </g>
     </g>
    </g>
    <g id="xtick_2">
     <g id="line2d_2">
      <g>
       <use style="stroke:#000000;stroke-width:0.8;" x="89.319628" xlink:href="#mccdb5a4507" y="260.517286"/>
      </g>
     </g>
    </g>
    <g id="xtick_3">
     <g id="line2d_3">
      <g>
       <use style="stroke:#000000;stroke-width:0.8;" x="114.952714" xlink:href="#mccdb5a4507" y="260.517286"/>
      </g>
     </g>
     <g id="text_2">
      <!-- [0, 99] -->
      <defs>
       <path d="M 8.59375 75.984375 
L 29.296875 75.984375 
L 29.296875 69 
L 17.578125 69 
L 17.578125 -6.203125 
L 29.296875 -6.203125 
L 29.296875 -13.1875 
L 8.59375 -13.1875 
z
" id="DejaVuSans-5b"/>
       <path d="M 31.78125 66.40625 
Q 24.171875 66.40625 20.328125 58.90625 
Q 16.5 51.421875 16.5 36.375 
Q 16.5 21.390625 20.328125 13.890625 
Q 24.171875 6.390625 31.78125 6.390625 
Q 39.453125 6.390625 43.28125 13.890625 
Q 47.125 21.390625 47.125 36.375 
Q 47.125 51.421875 43.28125 58.90625 
Q 39.453125 66.40625 31.78125 66.40625 
z
M 31.78125 74.21875 
Q 44.046875 74.21875 50.515625 64.515625 
Q 56.984375 54.828125 56.984375 36.375 
Q 56.984375 17.96875 50.515625 8.265625 
Q 44.046875 -1.421875 31.78125 -1.421875 
Q 19.53125 -1.421875 13.0625 8.265625 
Q 6.59375 17.96875 6.59375 36.375 
Q 6.59375 54.828125 13.0625 64.515625 
Q 19.53125 74.21875 31.78125 74.21875 
z
" id="DejaVuSans-30"/>
       <path d="M 11.71875 12.40625 
L 22.015625 12.40625 
L 22.015625 4 
L 14.015625 -11.625 
L 7.71875 -11.625 
L 11.71875 4 
z
" id="DejaVuSans-2c"/>
       <path id="DejaVuSans-20"/>
       <path d="M 10.984375 1.515625 
L 10.984375 10.5 
Q 14.703125 8.734375 18.5 7.8125 
Q 22.3125 6.890625 25.984375 6.890625 
Q 35.75 6.890625 40.890625 13.453125 
Q 46.046875 20.015625 46.78125 33.40625 
Q 43.953125 29.203125 39.59375 26.953125 
Q 35.25 24.703125 29.984375 24.703125 
Q 19.046875 24.703125 12.671875 31.3125 
Q 6.296875 37.9375 6.296875 49.421875 
Q 6.296875 60.640625 12.9375 67.421875 
Q 19.578125 74.21875 30.609375 74.21875 
Q 43.265625 74.21875 49.921875 64.515625 
Q 56.59375 54.828125 56.59375 36.375 
Q 56.59375 19.140625 48.40625 8.859375 
Q 40.234375 -1.421875 26.421875 -1.421875 
Q 22.703125 -1.421875 18.890625 -0.6875 
Q 15.09375 0.046875 10.984375 1.515625 
z
M 30.609375 32.421875 
Q 37.25 32.421875 41.125 36.953125 
Q 45.015625 41.5 45.015625 49.421875 
Q 45.015625 57.28125 41.125 61.84375 
Q 37.25 66.40625 30.609375 66.40625 
Q 23.96875 66.40625 20.09375 61.84375 
Q 16.21875 57.28125 16.21875 49.421875 
Q 16.21875 41.5 20.09375 36.953125 
Q 23.96875 32.421875 30.609375 32.421875 
z
" id="DejaVuSans-39"/>
       <path d="M 30.421875 75.984375 
L 30.421875 -13.1875 
L 9.71875 -13.1875 
L 9.71875 -6.203125 
L 21.390625 -6.203125 
L 21.390625 69 
L 9.71875 69 
L 9.71875 75.984375 
z
" id="DejaVuSans-5d"/>
      </defs>
      <g transform="translate(105.149341 296.399283)rotate(-45)scale(0.1 -0.1)">
       <use xlink:href="#DejaVuSans-5b"/>
       <use x="39.013672" xlink:href="#DejaVuSans-30"/>
       <use x="102.636719" xlink:href="#DejaVuSans-2c"/>
       <use x="134.423828" xlink:href="#DejaVuSans-20"/>
       <use x="166.210938" xlink:href="#DejaVuSans-39"/>
       <use x="229.833984" xlink:href="#DejaVuSans-39"/>
       <use x="293.457031" xlink:href="#DejaVuSans-5d"/>
      </g>
     </g>
    </g>
    <g id="xtick_4">
     <g id="line2d_4">
      <g>
       <use style="stroke:#000000;stroke-width:0.8;" x="140.585799" xlink:href="#mccdb5a4507" y="260.517286"/>
      </g>
     </g>
     <g id="text_3">
      <!-- [100, 199] -->
      <defs>
       <path d="M 12.40625 8.296875 
L 28.515625 8.296875 
L 28.515625 63.921875 
L 10.984375 60.40625 
L 10.984375 69.390625 
L 28.421875 72.90625 
L 38.28125 72.90625 
L 38.28125 8.296875 
L 54.390625 8.296875 
L 54.390625 0 
L 12.40625 0 
z
" id="DejaVuSans-31"/>
      </defs>
      <g transform="translate(124.033976 309.896184)rotate(-45)scale(0.1 -0.1)">
       <use xlink:href="#DejaVuSans-5b"/>
       <use x="39.013672" xlink:href="#DejaVuSans-31"/>
       <use x="102.636719" xlink:href="#DejaVuSans-30"/>
       <use x="166.259766" xlink:href="#DejaVuSans-30"/>
       <use x="229.882812" xlink:href="#DejaVuSans-2c"/>
       <use x="261.669922" xlink:href="#DejaVuSans-20"/>
       <use x="293.457031" xlink:href="#DejaVuSans-31"/>
       <use x="357.080078" xlink:href="#DejaVuSans-39"/>
       <use x="420.703125" xlink:href="#DejaVuSans-39"/>
       <use x="484.326172" xlink:href="#DejaVuSans-5d"/>
      </g>
     </g>
    </g>
    <g id="xtick_5">
     <g id="line2d_5">
      <g>
       <use style="stroke:#000000;stroke-width:0.8;" x="166.218885" xlink:href="#mccdb5a4507" y="260.517286"/>
      </g>
     </g>
     <g id="text_4">
      <!-- [200, 299] -->
      <defs>
       <path d="M 19.1875 8.296875 
L 53.609375 8.296875 
L 53.609375 0 
L 7.328125 0 
L 7.328125 8.296875 
Q 12.9375 14.109375 22.625 23.890625 
Q 32.328125 33.6875 34.8125 36.53125 
Q 39.546875 41.84375 41.421875 45.53125 
Q 43.3125 49.21875 43.3125 52.78125 
Q 43.3125 58.59375 39.234375 62.25 
Q 35.15625 65.921875 28.609375 65.921875 
Q 23.96875 65.921875 18.8125 64.3125 
Q 13.671875 62.703125 7.8125 59.421875 
L 7.8125 69.390625 
Q 13.765625 71.78125 18.9375 73 
Q 24.125 74.21875 28.421875 74.21875 
Q 39.75 74.21875 46.484375 68.546875 
Q 53.21875 62.890625 53.21875 53.421875 
Q 53.21875 48.921875 51.53125 44.890625 
Q 49.859375 40.875 45.40625 35.40625 
Q 44.1875 33.984375 37.640625 27.21875 
Q 31.109375 20.453125 19.1875 8.296875 
z
" id="DejaVuSans-32"/>
      </defs>
      <g transform="translate(149.667062 309.896184)rotate(-45)scale(0.1 -0.1)">
       <use xlink:href="#DejaVuSans-5b"/>
       <use x="39.013672" xlink:href="#DejaVuSans-32"/>
       <use x="102.636719" xlink:href="#DejaVuSans-30"/>
       <use x="166.259766" xlink:href="#DejaVuSans-30"/>
       <use x="229.882812" xlink:href="#DejaVuSans-2c"/>
       <use x="261.669922" xlink:href="#DejaVuSans-20"/>
       <use x="293.457031" xlink:href="#DejaVuSans-32"/>
       <use x="357.080078" xlink:href="#DejaVuSans-39"/>
       <use x="420.703125" xlink:href="#DejaVuSans-39"/>
       <use x="484.326172" xlink:href="#DejaVuSans-5d"/>
      </g>
     </g>
    </g>
    <g id="xtick_6">
     <g id="line2d_6">
      <g>
       <use style="stroke:#000000;stroke-width:0.8;" x="191.85197" xlink:href="#mccdb5a4507" y="260.517286"/>
      </g>
     </g>
     <g id="text_5">
      <!-- [300, 399] -->
      <defs>
       <path d="M 40.578125 39.3125 
Q 47.65625 37.796875 51.625 33 
Q 55.609375 28.21875 55.609375 21.1875 
Q 55.609375 10.40625 48.1875 4.484375 
Q 40.765625 -1.421875 27.09375 -1.421875 
Q 22.515625 -1.421875 17.65625 -0.515625 
Q 12.796875 0.390625 7.625 2.203125 
L 7.625 11.71875 
Q 11.71875 9.328125 16.59375 8.109375 
Q 21.484375 6.890625 26.8125 6.890625 
Q 36.078125 6.890625 40.9375 10.546875 
Q 45.796875 14.203125 45.796875 21.1875 
Q 45.796875 27.640625 41.28125 31.265625 
Q 36.765625 34.90625 28.71875 34.90625 
L 20.21875 34.90625 
L 20.21875 43.015625 
L 29.109375 43.015625 
Q 36.375 43.015625 40.234375 45.921875 
Q 44.09375 48.828125 44.09375 54.296875 
Q 44.09375 59.90625 40.109375 62.90625 
Q 36.140625 65.921875 28.71875 65.921875 
Q 24.65625 65.921875 20.015625 65.03125 
Q 15.375 64.15625 9.8125 62.3125 
L 9.8125 71.09375 
Q 15.4375 72.65625 20.34375 73.4375 
Q 25.25 74.21875 29.59375 74.21875 
Q 40.828125 74.21875 47.359375 69.109375 
Q 53.90625 64.015625 53.90625 55.328125 
Q 53.90625 49.265625 50.4375 45.09375 
Q 46.96875 40.921875 40.578125 39.3125 
z
" id="DejaVuSans-33"/>
      </defs>
      <g transform="translate(175.300147 309.896184)rotate(-45)scale(0.1 -0.1)">
       <use xlink:href="#DejaVuSans-5b"/>
       <use x="39.013672" xlink:href="#DejaVuSans-33"/>
       <use x="102.636719" xlink:href="#DejaVuSans-30"/>
       <use x="166.259766" xlink:href="#DejaVuSans-30"/>
       <use x="229.882812" xlink:href="#DejaVuSans-2c"/>
       <use x="261.669922" xlink:href="#DejaVuSans-20"/>
       <use x="293.457031" xlink:href="#DejaVuSans-33"/>
       <use x="357.080078" xlink:href="#DejaVuSans-39"/>
       <use x="420.703125" xlink:href="#DejaVuSans-39"/>
       <use x="484.326172" xlink:href="#DejaVuSans-5d"/>
      </g>
     </g>
    </g>
    <g id="xtick_7">
     <g id="line2d_7">
      <g>
       <use style="stroke:#000000;stroke-width:0.8;" x="217.485056" xlink:href="#mccdb5a4507" y="260.517286"/>
      </g>
     </g>
     <g id="text_6">
      <!-- [400, 499] -->
      <defs>
       <path d="M 37.796875 64.3125 
L 12.890625 25.390625 
L 37.796875 25.390625 
z
M 35.203125 72.90625 
L 47.609375 72.90625 
L 47.609375 25.390625 
L 58.015625 25.390625 
L 58.015625 17.1875 
L 47.609375 17.1875 
L 47.609375 0 
L 37.796875 0 
L 37.796875 17.1875 
L 4.890625 17.1875 
L 4.890625 26.703125 
z
" id="DejaVuSans-34"/>
      </defs>
      <g transform="translate(200.933233 309.896184)rotate(-45)scale(0.1 -0.1)">
       <use xlink:href="#DejaVuSans-5b"/>
       <use x="39.013672" xlink:href="#DejaVuSans-34"/>
       <use x="102.636719" xlink:href="#DejaVuSans-30"/>
       <use x="166.259766" xlink:href="#DejaVuSans-30"/>
       <use x="229.882812" xlink:href="#DejaVuSans-2c"/>
       <use x="261.669922" xlink:href="#DejaVuSans-20"/>
       <use x="293.457031" xlink:href="#DejaVuSans-34"/>
       <use x="357.080078" xlink:href="#DejaVuSans-39"/>
       <use x="420.703125" xlink:href="#DejaVuSans-39"/>
       <use x="484.326172" xlink:href="#DejaVuSans-5d"/>
      </g>
     </g>
    </g>
    <g id="xtick_8">
     <g id="line2d_8">
      <g>
       <use style="stroke:#000000;stroke-width:0.8;" x="243.118141" xlink:href="#mccdb5a4507" y="260.517286"/>
      </g>
     </g>
     <g id="text_7">
      <!-- [500, 599] -->
      <defs>
       <path d="M 10.796875 72.90625 
L 49.515625 72.90625 
L 49.515625 64.59375 
L 19.828125 64.59375 
L 19.828125 46.734375 
Q 21.96875 47.46875 24.109375 47.828125 
Q 26.265625 48.1875 28.421875 48.1875 
Q 40.625 48.1875 47.75 41.5 
Q 54.890625 34.8125 54.890625 23.390625 
Q 54.890625 11.625 47.5625 5.09375 
Q 40.234375 -1.421875 26.90625 -1.421875 
Q 22.3125 -1.421875 17.546875 -0.640625 
Q 12.796875 0.140625 7.71875 1.703125 
L 7.71875 11.625 
Q 12.109375 9.234375 16.796875 8.0625 
Q 21.484375 6.890625 26.703125 6.890625 
Q 35.15625 6.890625 40.078125 11.328125 
Q 45.015625 15.765625 45.015625 23.390625 
Q 45.015625 31 40.078125 35.4375 
Q 35.15625 39.890625 26.703125 39.890625 
Q 22.75 39.890625 18.8125 39.015625 
Q 14.890625 38.140625 10.796875 36.28125 
z
" id="DejaVuSans-35"/>
      </defs>
      <g transform="translate(226.566318 309.896184)rotate(-45)scale(0.1 -0.1)">
       <use xlink:href="#DejaVuSans-5b"/>
       <use x="39.013672" xlink:href="#DejaVuSans-35"/>
       <use x="102.636719" xlink:href="#DejaVuSans-30"/>
       <use x="166.259766" xlink:href="#DejaVuSans-30"/>
       <use x="229.882812" xlink:href="#DejaVuSans-2c"/>
       <use x="261.669922" xlink:href="#DejaVuSans-20"/>
       <use x="293.457031" xlink:href="#DejaVuSans-35"/>
       <use x="357.080078" xlink:href="#DejaVuSans-39"/>
       <use x="420.703125" xlink:href="#DejaVuSans-39"/>
       <use x="484.326172" xlink:href="#DejaVuSans-5d"/>
      </g>
     </g>
    </g>
    <g id="xtick_9">
     <g id="line2d_9">
      <g>
       <use style="stroke:#000000;stroke-width:0.8;" x="268.751227" xlink:href="#mccdb5a4507" y="260.517286"/>
      </g>
     </g>
     <g id="text_8">
      <!-- [600, 699] -->
      <defs>
       <path d="M 33.015625 40.375 
Q 26.375 40.375 22.484375 35.828125 
Q 18.609375 31.296875 18.609375 23.390625 
Q 18.609375 15.53125 22.484375 10.953125 
Q 26.375 6.390625 33.015625 6.390625 
Q 39.65625 6.390625 43.53125 10.953125 
Q 47.40625 15.53125 47.40625 23.390625 
Q 47.40625 31.296875 43.53125 35.828125 
Q 39.65625 40.375 33.015625 40.375 
z
M 52.59375 71.296875 
L 52.59375 62.3125 
Q 48.875 64.0625 45.09375 64.984375 
Q 41.3125 65.921875 37.59375 65.921875 
Q 27.828125 65.921875 22.671875 59.328125 
Q 17.53125 52.734375 16.796875 39.40625 
Q 19.671875 43.65625 24.015625 45.921875 
Q 28.375 48.1875 33.59375 48.1875 
Q 44.578125 48.1875 50.953125 41.515625 
Q 57.328125 34.859375 57.328125 23.390625 
Q 57.328125 12.15625 50.6875 5.359375 
Q 44.046875 -1.421875 33.015625 -1.421875 
Q 20.359375 -1.421875 13.671875 8.265625 
Q 6.984375 17.96875 6.984375 36.375 
Q 6.984375 53.65625 15.1875 63.9375 
Q 23.390625 74.21875 37.203125 74.21875 
Q 40.921875 74.21875 44.703125 73.484375 
Q 48.484375 72.75 52.59375 71.296875 
z
" id="DejaVuSans-36"/>
      </defs>
      <g transform="translate(252.199404 309.896184)rotate(-45)scale(0.1 -0.1)">
       <use xlink:href="#DejaVuSans-5b"/>
       <use x="39.013672" xlink:href="#DejaVuSans-36"/>
       <use x="102.636719" xlink:href="#DejaVuSans-30"/>
       <use x="166.259766" xlink:href="#DejaVuSans-30"/>
       <use x="229.882812" xlink:href="#DejaVuSans-2c"/>
       <use x="261.669922" xlink:href="#DejaVuSans-20"/>
       <use x="293.457031" xlink:href="#DejaVuSans-36"/>
       <use x="357.080078" xlink:href="#DejaVuSans-39"/>
       <use x="420.703125" xlink:href="#DejaVuSans-39"/>
       <use x="484.326172" xlink:href="#DejaVuSans-5d"/>
      </g>
     </g>
    </g>
    <g id="xtick_10">
     <g id="line2d_10">
      <g>
       <use style="stroke:#000000;stroke-width:0.8;" x="294.384312" xlink:href="#mccdb5a4507" y="260.517286"/>
      </g>
     </g>
     <g id="text_9">
      <!-- [700, 799] -->
      <defs>
       <path d="M 8.203125 72.90625 
L 55.078125 72.90625 
L 55.078125 68.703125 
L 28.609375 0 
L 18.3125 0 
L 43.21875 64.59375 
L 8.203125 64.59375 
z
" id="DejaVuSans-37"/>
      </defs>
      <g transform="translate(277.832489 309.896184)rotate(-45)scale(0.1 -0.1)">
       <use xlink:href="#DejaVuSans-5b"/>
       <use x="39.013672" xlink:href="#DejaVuSans-37"/>
       <use x="102.636719" xlink:href="#DejaVuSans-30"/>
       <use x="166.259766" xlink:href="#DejaVuSans-30"/>
       <use x="229.882812" xlink:href="#DejaVuSans-2c"/>
       <use x="261.669922" xlink:href="#DejaVuSans-20"/>
       <use x="293.457031" xlink:href="#DejaVuSans-37"/>
       <use x="357.080078" xlink:href="#DejaVuSans-39"/>
       <use x="420.703125" xlink:href="#DejaVuSans-39"/>
       <use x="484.326172" xlink:href="#DejaVuSans-5d"/>
      </g>
     </g>
    </g>
    <g id="xtick_11">
     <g id="line2d_11">
      <g>
       <use style="stroke:#000000;stroke-width:0.8;" x="320.017398" xlink:href="#mccdb5a4507" y="260.517286"/>
      </g>
     </g>
     <g id="text_10">
      <!-- [800, 899] -->
      <defs>
       <path d="M 31.78125 34.625 
Q 24.75 34.625 20.71875 30.859375 
Q 16.703125 27.09375 16.703125 20.515625 
Q 16.703125 13.921875 20.71875 10.15625 
Q 24.75 6.390625 31.78125 6.390625 
Q 38.8125 6.390625 42.859375 10.171875 
Q 46.921875 13.96875 46.921875 20.515625 
Q 46.921875 27.09375 42.890625 30.859375 
Q 38.875 34.625 31.78125 34.625 
z
M 21.921875 38.8125 
Q 15.578125 40.375 12.03125 44.71875 
Q 8.5 49.078125 8.5 55.328125 
Q 8.5 64.0625 14.71875 69.140625 
Q 20.953125 74.21875 31.78125 74.21875 
Q 42.671875 74.21875 48.875 69.140625 
Q 55.078125 64.0625 55.078125 55.328125 
Q 55.078125 49.078125 51.53125 44.71875 
Q 48 40.375 41.703125 38.8125 
Q 48.828125 37.15625 52.796875 32.3125 
Q 56.78125 27.484375 56.78125 20.515625 
Q 56.78125 9.90625 50.3125 4.234375 
Q 43.84375 -1.421875 31.78125 -1.421875 
Q 19.734375 -1.421875 13.25 4.234375 
Q 6.78125 9.90625 6.78125 20.515625 
Q 6.78125 27.484375 10.78125 32.3125 
Q 14.796875 37.15625 21.921875 38.8125 
z
M 18.3125 54.390625 
Q 18.3125 48.734375 21.84375 45.5625 
Q 25.390625 42.390625 31.78125 42.390625 
Q 38.140625 42.390625 41.71875 45.5625 
Q 45.3125 48.734375 45.3125 54.390625 
Q 45.3125 60.0625 41.71875 63.234375 
Q 38.140625 66.40625 31.78125 66.40625 
Q 25.390625 66.40625 21.84375 63.234375 
Q 18.3125 60.0625 18.3125 54.390625 
z
" id="DejaVuSans-38"/>
      </defs>
      <g transform="translate(303.465575 309.896184)rotate(-45)scale(0.1 -0.1)">
       <use xlink:href="#DejaVuSans-5b"/>
       <use x="39.013672" xlink:href="#DejaVuSans-38"/>
       <use x="102.636719" xlink:href="#DejaVuSans-30"/>
       <use x="166.259766" xlink:href="#DejaVuSans-30"/>
       <use x="229.882812" xlink:href="#DejaVuSans-2c"/>
       <use x="261.669922" xlink:href="#DejaVuSans-20"/>
       <use x="293.457031" xlink:href="#DejaVuSans-38"/>
       <use x="357.080078" xlink:href="#DejaVuSans-39"/>
       <use x="420.703125" xlink:href="#DejaVuSans-39"/>
       <use x="484.326172" xlink:href="#DejaVuSans-5d"/>
      </g>
     </g>
    </g>
    <g id="xtick_12">
     <g id="line2d_12">
      <g>
       <use style="stroke:#000000;stroke-width:0.8;" x="345.650483" xlink:href="#mccdb5a4507" y="260.517286"/>
      </g>
     </g>
     <g id="text_11">
      <!-- [900, 999] -->
      <g transform="translate(329.09866 309.896184)rotate(-45)scale(0.1 -0.1)">
       <use xlink:href="#DejaVuSans-5b"/>
       <use x="39.013672" xlink:href="#DejaVuSans-39"/>
       <use x="102.636719" xlink:href="#DejaVuSans-30"/>
       <use x="166.259766" xlink:href="#DejaVuSans-30"/>
       <use x="229.882812" xlink:href="#DejaVuSans-2c"/>
       <use x="261.669922" xlink:href="#DejaVuSans-20"/>
       <use x="293.457031" xlink:href="#DejaVuSans-39"/>
       <use x="357.080078" xlink:href="#DejaVuSans-39"/>
       <use x="420.703125" xlink:href="#DejaVuSans-39"/>
       <use x="484.326172" xlink:href="#DejaVuSans-5d"/>
      </g>
     </g>
    </g>
    <g id="xtick_13">
     <g id="line2d_13">
      <g>
       <use style="stroke:#000000;stroke-width:0.8;" x="371.283569" xlink:href="#mccdb5a4507" y="260.517286"/>
      </g>
     </g>
     <g id="text_12">
      <!-- [1000, 1099] -->
      <g transform="translate(350.232779 318.894118)rotate(-45)scale(0.1 -0.1)">
       <use xlink:href="#DejaVuSans-5b"/>
       <use x="39.013672" xlink:href="#DejaVuSans-31"/>
       <use x="102.636719" xlink:href="#DejaVuSans-30"/>
       <use x="166.259766" xlink:href="#DejaVuSans-30"/>
       <use x="229.882812" xlink:href="#DejaVuSans-30"/>
       <use x="293.505859" xlink:href="#DejaVuSans-2c"/>
       <use x="325.292969" xlink:href="#DejaVuSans-20"/>
       <use x="357.080078" xlink:href="#DejaVuSans-31"/>
       <use x="420.703125" xlink:href="#DejaVuSans-30"/>
       <use x="484.326172" xlink:href="#DejaVuSans-39"/>
       <use x="547.949219" xlink:href="#DejaVuSans-39"/>
       <use x="611.572266" xlink:href="#DejaVuSans-5d"/>
      </g>
     </g>
    </g>
    <g id="xtick_14">
     <g id="line2d_14">
      <g>
       <use style="stroke:#000000;stroke-width:0.8;" x="396.916654" xlink:href="#mccdb5a4507" y="260.517286"/>
      </g>
     </g>
     <g id="text_13">
      <!-- [1100, 1199] -->
      <g transform="translate(375.865864 318.894118)rotate(-45)scale(0.1 -0.1)">
       <use xlink:href="#DejaVuSans-5b"/>
       <use x="39.013672" xlink:href="#DejaVuSans-31"/>
       <use x="102.636719" xlink:href="#DejaVuSans-31"/>
       <use x="166.259766" xlink:href="#DejaVuSans-30"/>
       <use x="229.882812" xlink:href="#DejaVuSans-30"/>
       <use x="293.505859" xlink:href="#DejaVuSans-2c"/>
       <use x="325.292969" xlink:href="#DejaVuSans-20"/>
       <use x="357.080078" xlink:href="#DejaVuSans-31"/>
       <use x="420.703125" xlink:href="#DejaVuSans-31"/>
       <use x="484.326172" xlink:href="#DejaVuSans-39"/>
       <use x="547.949219" xlink:href="#DejaVuSans-39"/>
       <use x="611.572266" xlink:href="#DejaVuSans-5d"/>
      </g>
     </g>
    </g>
    <g id="xtick_15">
     <g id="line2d_15">
      <g>
       <use style="stroke:#000000;stroke-width:0.8;" x="422.54974" xlink:href="#mccdb5a4507" y="260.517286"/>
      </g>
     </g>
     <g id="text_14">
      <!-- [1200, 1299] -->
      <g transform="translate(401.49895 318.894118)rotate(-45)scale(0.1 -0.1)">
       <use xlink:href="#DejaVuSans-5b"/>
       <use x="39.013672" xlink:href="#DejaVuSans-31"/>
       <use x="102.636719" xlink:href="#DejaVuSans-32"/>
       <use x="166.259766" xlink:href="#DejaVuSans-30"/>
       <use x="229.882812" xlink:href="#DejaVuSans-30"/>
       <use x="293.505859" xlink:href="#DejaVuSans-2c"/>
       <use x="325.292969" xlink:href="#DejaVuSans-20"/>
       <use x="357.080078" xlink:href="#DejaVuSans-31"/>
       <use x="420.703125" xlink:href="#DejaVuSans-32"/>
       <use x="484.326172" xlink:href="#DejaVuSans-39"/>
       <use x="547.949219" xlink:href="#DejaVuSans-39"/>
       <use x="611.572266" xlink:href="#DejaVuSans-5d"/>
      </g>
     </g>
    </g>
    <g id="text_15">
     <!-- Graph Elements (nodes + edges) -->
     <defs>
      <path d="M 59.515625 10.40625 
L 59.515625 29.984375 
L 43.40625 29.984375 
L 43.40625 38.09375 
L 69.28125 38.09375 
L 69.28125 6.78125 
Q 63.578125 2.734375 56.6875 0.65625 
Q 49.8125 -1.421875 42 -1.421875 
Q 24.90625 -1.421875 15.25 8.5625 
Q 5.609375 18.5625 5.609375 36.375 
Q 5.609375 54.25 15.25 64.234375 
Q 24.90625 74.21875 42 74.21875 
Q 49.125 74.21875 55.546875 72.453125 
Q 61.96875 70.703125 67.390625 67.28125 
L 67.390625 56.78125 
Q 61.921875 61.421875 55.765625 63.765625 
Q 49.609375 66.109375 42.828125 66.109375 
Q 29.4375 66.109375 22.71875 58.640625 
Q 16.015625 51.171875 16.015625 36.375 
Q 16.015625 21.625 22.71875 14.15625 
Q 29.4375 6.6875 42.828125 6.6875 
Q 48.046875 6.6875 52.140625 7.59375 
Q 56.25 8.5 59.515625 10.40625 
z
" id="DejaVuSans-47"/>
      <path d="M 41.109375 46.296875 
Q 39.59375 47.171875 37.8125 47.578125 
Q 36.03125 48 33.890625 48 
Q 26.265625 48 22.1875 43.046875 
Q 18.109375 38.09375 18.109375 28.8125 
L 18.109375 0 
L 9.078125 0 
L 9.078125 54.6875 
L 18.109375 54.6875 
L 18.109375 46.1875 
Q 20.953125 51.171875 25.484375 53.578125 
Q 30.03125 56 36.53125 56 
Q 37.453125 56 38.578125 55.875 
Q 39.703125 55.765625 41.0625 55.515625 
z
" id="DejaVuSans-72"/>
      <path d="M 34.28125 27.484375 
Q 23.390625 27.484375 19.1875 25 
Q 14.984375 22.515625 14.984375 16.5 
Q 14.984375 11.71875 18.140625 8.90625 
Q 21.296875 6.109375 26.703125 6.109375 
Q 34.1875 6.109375 38.703125 11.40625 
Q 43.21875 16.703125 43.21875 25.484375 
L 43.21875 27.484375 
z
M 52.203125 31.203125 
L 52.203125 0 
L 43.21875 0 
L 43.21875 8.296875 
Q 40.140625 3.328125 35.546875 0.953125 
Q 30.953125 -1.421875 24.3125 -1.421875 
Q 15.921875 -1.421875 10.953125 3.296875 
Q 6 8.015625 6 15.921875 
Q 6 25.140625 12.171875 29.828125 
Q 18.359375 34.515625 30.609375 34.515625 
L 43.21875 34.515625 
L 43.21875 35.40625 
Q 43.21875 41.609375 39.140625 45 
Q 35.0625 48.390625 27.6875 48.390625 
Q 23 48.390625 18.546875 47.265625 
Q 14.109375 46.140625 10.015625 43.890625 
L 10.015625 52.203125 
Q 14.9375 54.109375 19.578125 55.046875 
Q 24.21875 56 28.609375 56 
Q 40.484375 56 46.34375 49.84375 
Q 52.203125 43.703125 52.203125 31.203125 
z
" id="DejaVuSans-61"/>
      <path d="M 18.109375 8.203125 
L 18.109375 -20.796875 
L 9.078125 -20.796875 
L 9.078125 54.6875 
L 18.109375 54.6875 
L 18.109375 46.390625 
Q 20.953125 51.265625 25.265625 53.625 
Q 29.59375 56 35.59375 56 
Q 45.5625 56 51.78125 48.09375 
Q 58.015625 40.1875 58.015625 27.296875 
Q 58.015625 14.40625 51.78125 6.484375 
Q 45.5625 -1.421875 35.59375 -1.421875 
Q 29.59375 -1.421875 25.265625 0.953125 
Q 20.953125 3.328125 18.109375 8.203125 
z
M 48.6875 27.296875 
Q 48.6875 37.203125 44.609375 42.84375 
Q 40.53125 48.484375 33.40625 48.484375 
Q 26.265625 48.484375 22.1875 42.84375 
Q 18.109375 37.203125 18.109375 27.296875 
Q 18.109375 17.390625 22.1875 11.75 
Q 26.265625 6.109375 33.40625 6.109375 
Q 40.53125 6.109375 44.609375 11.75 
Q 48.6875 17.390625 48.6875 27.296875 
z
" id="DejaVuSans-70"/>
      <path d="M 54.890625 33.015625 
L 54.890625 0 
L 45.90625 0 
L 45.90625 32.71875 
Q 45.90625 40.484375 42.875 44.328125 
Q 39.84375 48.1875 33.796875 48.1875 
Q 26.515625 48.1875 22.3125 43.546875 
Q 18.109375 38.921875 18.109375 30.90625 
L 18.109375 0 
L 9.078125 0 
L 9.078125 75.984375 
L 18.109375 75.984375 
L 18.109375 46.1875 
Q 21.34375 51.125 25.703125 53.5625 
Q 30.078125 56 35.796875 56 
Q 45.21875 56 50.046875 50.171875 
Q 54.890625 44.34375 54.890625 33.015625 
z
" id="DejaVuSans-68"/>
      <path d="M 9.8125 72.90625 
L 55.90625 72.90625 
L 55.90625 64.59375 
L 19.671875 64.59375 
L 19.671875 43.015625 
L 54.390625 43.015625 
L 54.390625 34.71875 
L 19.671875 34.71875 
L 19.671875 8.296875 
L 56.78125 8.296875 
L 56.78125 0 
L 9.8125 0 
z
" id="DejaVuSans-45"/>
      <path d="M 56.203125 29.59375 
L 56.203125 25.203125 
L 14.890625 25.203125 
Q 15.484375 15.921875 20.484375 11.0625 
Q 25.484375 6.203125 34.421875 6.203125 
Q 39.59375 6.203125 44.453125 7.46875 
Q 49.3125 8.734375 54.109375 11.28125 
L 54.109375 2.78125 
Q 49.265625 0.734375 44.1875 -0.34375 
Q 39.109375 -1.421875 33.890625 -1.421875 
Q 20.796875 -1.421875 13.15625 6.1875 
Q 5.515625 13.8125 5.515625 26.8125 
Q 5.515625 40.234375 12.765625 48.109375 
Q 20.015625 56 32.328125 56 
Q 43.359375 56 49.78125 48.890625 
Q 56.203125 41.796875 56.203125 29.59375 
z
M 47.21875 32.234375 
Q 47.125 39.59375 43.09375 43.984375 
Q 39.0625 48.390625 32.421875 48.390625 
Q 24.90625 48.390625 20.390625 44.140625 
Q 15.875 39.890625 15.1875 32.171875 
z
" id="DejaVuSans-65"/>
      <path d="M 52 44.1875 
Q 55.375 50.25 60.0625 53.125 
Q 64.75 56 71.09375 56 
Q 79.640625 56 84.28125 50.015625 
Q 88.921875 44.046875 88.921875 33.015625 
L 88.921875 0 
L 79.890625 0 
L 79.890625 32.71875 
Q 79.890625 40.578125 77.09375 44.375 
Q 74.3125 48.1875 68.609375 48.1875 
Q 61.625 48.1875 57.5625 43.546875 
Q 53.515625 38.921875 53.515625 30.90625 
L 53.515625 0 
L 44.484375 0 
L 44.484375 32.71875 
Q 44.484375 40.625 41.703125 44.40625 
Q 38.921875 48.1875 33.109375 48.1875 
Q 26.21875 48.1875 22.15625 43.53125 
Q 18.109375 38.875 18.109375 30.90625 
L 18.109375 0 
L 9.078125 0 
L 9.078125 54.6875 
L 18.109375 54.6875 
L 18.109375 46.1875 
Q 21.1875 51.21875 25.484375 53.609375 
Q 29.78125 56 35.6875 56 
Q 41.65625 56 45.828125 52.96875 
Q 50 49.953125 52 44.1875 
z
" id="DejaVuSans-6d"/>
      <path d="M 54.890625 33.015625 
L 54.890625 0 
L 45.90625 0 
L 45.90625 32.71875 
Q 45.90625 40.484375 42.875 44.328125 
Q 39.84375 48.1875 33.796875 48.1875 
Q 26.515625 48.1875 22.3125 43.546875 
Q 18.109375 38.921875 18.109375 30.90625 
L 18.109375 0 
L 9.078125 0 
L 9.078125 54.6875 
L 18.109375 54.6875 
L 18.109375 46.1875 
Q 21.34375 51.125 25.703125 53.5625 
Q 30.078125 56 35.796875 56 
Q 45.21875 56 50.046875 50.171875 
Q 54.890625 44.34375 54.890625 33.015625 
z
" id="DejaVuSans-6e"/>
      <path d="M 18.3125 70.21875 
L 18.3125 54.6875 
L 36.8125 54.6875 
L 36.8125 47.703125 
L 18.3125 47.703125 
L 18.3125 18.015625 
Q 18.3125 11.328125 20.140625 9.421875 
Q 21.96875 7.515625 27.59375 7.515625 
L 36.8125 7.515625 
L 36.8125 0 
L 27.59375 0 
Q 17.1875 0 13.234375 3.875 
Q 9.28125 7.765625 9.28125 18.015625 
L 9.28125 47.703125 
L 2.6875 47.703125 
L 2.6875 54.6875 
L 9.28125 54.6875 
L 9.28125 70.21875 
z
" id="DejaVuSans-74"/>
      <path d="M 44.28125 53.078125 
L 44.28125 44.578125 
Q 40.484375 46.53125 36.375 47.5 
Q 32.28125 48.484375 27.875 48.484375 
Q 21.1875 48.484375 17.84375 46.4375 
Q 14.5 44.390625 14.5 40.28125 
Q 14.5 37.15625 16.890625 35.375 
Q 19.28125 33.59375 26.515625 31.984375 
L 29.59375 31.296875 
Q 39.15625 29.25 43.1875 25.515625 
Q 47.21875 21.78125 47.21875 15.09375 
Q 47.21875 7.46875 41.1875 3.015625 
Q 35.15625 -1.421875 24.609375 -1.421875 
Q 20.21875 -1.421875 15.453125 -0.5625 
Q 10.6875 0.296875 5.421875 2 
L 5.421875 11.28125 
Q 10.40625 8.6875 15.234375 7.390625 
Q 20.0625 6.109375 24.8125 6.109375 
Q 31.15625 6.109375 34.5625 8.28125 
Q 37.984375 10.453125 37.984375 14.40625 
Q 37.984375 18.0625 35.515625 20.015625 
Q 33.0625 21.96875 24.703125 23.78125 
L 21.578125 24.515625 
Q 13.234375 26.265625 9.515625 29.90625 
Q 5.8125 33.546875 5.8125 39.890625 
Q 5.8125 47.609375 11.28125 51.796875 
Q 16.75 56 26.8125 56 
Q 31.78125 56 36.171875 55.265625 
Q 40.578125 54.546875 44.28125 53.078125 
z
" id="DejaVuSans-73"/>
      <path d="M 31 75.875 
Q 24.46875 64.65625 21.28125 53.65625 
Q 18.109375 42.671875 18.109375 31.390625 
Q 18.109375 20.125 21.3125 9.0625 
Q 24.515625 -2 31 -13.1875 
L 23.1875 -13.1875 
Q 15.875 -1.703125 12.234375 9.375 
Q 8.59375 20.453125 8.59375 31.390625 
Q 8.59375 42.28125 12.203125 53.3125 
Q 15.828125 64.359375 23.1875 75.875 
z
" id="DejaVuSans-28"/>
      <path d="M 30.609375 48.390625 
Q 23.390625 48.390625 19.1875 42.75 
Q 14.984375 37.109375 14.984375 27.296875 
Q 14.984375 17.484375 19.15625 11.84375 
Q 23.34375 6.203125 30.609375 6.203125 
Q 37.796875 6.203125 41.984375 11.859375 
Q 46.1875 17.53125 46.1875 27.296875 
Q 46.1875 37.015625 41.984375 42.703125 
Q 37.796875 48.390625 30.609375 48.390625 
z
M 30.609375 56 
Q 42.328125 56 49.015625 48.375 
Q 55.71875 40.765625 55.71875 27.296875 
Q 55.71875 13.875 49.015625 6.21875 
Q 42.328125 -1.421875 30.609375 -1.421875 
Q 18.84375 -1.421875 12.171875 6.21875 
Q 5.515625 13.875 5.515625 27.296875 
Q 5.515625 40.765625 12.171875 48.375 
Q 18.84375 56 30.609375 56 
z
" id="DejaVuSans-6f"/>
      <path d="M 45.40625 46.390625 
L 45.40625 75.984375 
L 54.390625 75.984375 
L 54.390625 0 
L 45.40625 0 
L 45.40625 8.203125 
Q 42.578125 3.328125 38.25 0.953125 
Q 33.9375 -1.421875 27.875 -1.421875 
Q 17.96875 -1.421875 11.734375 6.484375 
Q 5.515625 14.40625 5.515625 27.296875 
Q 5.515625 40.1875 11.734375 48.09375 
Q 17.96875 56 27.875 56 
Q 33.9375 56 38.25 53.625 
Q 42.578125 51.265625 45.40625 46.390625 
z
M 14.796875 27.296875 
Q 14.796875 17.390625 18.875 11.75 
Q 22.953125 6.109375 30.078125 6.109375 
Q 37.203125 6.109375 41.296875 11.75 
Q 45.40625 17.390625 45.40625 27.296875 
Q 45.40625 37.203125 41.296875 42.84375 
Q 37.203125 48.484375 30.078125 48.484375 
Q 22.953125 48.484375 18.875 42.84375 
Q 14.796875 37.203125 14.796875 27.296875 
z
" id="DejaVuSans-64"/>
      <path d="M 46 62.703125 
L 46 35.5 
L 73.1875 35.5 
L 73.1875 27.203125 
L 46 27.203125 
L 46 0 
L 37.796875 0 
L 37.796875 27.203125 
L 10.59375 27.203125 
L 10.59375 35.5 
L 37.796875 35.5 
L 37.796875 62.703125 
z
" id="DejaVuSans-2b"/>
      <path d="M 45.40625 27.984375 
Q 45.40625 37.75 41.375 43.109375 
Q 37.359375 48.484375 30.078125 48.484375 
Q 22.859375 48.484375 18.828125 43.109375 
Q 14.796875 37.75 14.796875 27.984375 
Q 14.796875 18.265625 18.828125 12.890625 
Q 22.859375 7.515625 30.078125 7.515625 
Q 37.359375 7.515625 41.375 12.890625 
Q 45.40625 18.265625 45.40625 27.984375 
z
M 54.390625 6.78125 
Q 54.390625 -7.171875 48.1875 -13.984375 
Q 42 -20.796875 29.203125 -20.796875 
Q 24.46875 -20.796875 20.265625 -20.09375 
Q 16.0625 -19.390625 12.109375 -17.921875 
L 12.109375 -9.1875 
Q 16.0625 -11.328125 19.921875 -12.34375 
Q 23.78125 -13.375 27.78125 -13.375 
Q 36.625 -13.375 41.015625 -8.765625 
Q 45.40625 -4.15625 45.40625 5.171875 
L 45.40625 9.625 
Q 42.625 4.78125 38.28125 2.390625 
Q 33.9375 0 27.875 0 
Q 17.828125 0 11.671875 7.65625 
Q 5.515625 15.328125 5.515625 27.984375 
Q 5.515625 40.671875 11.671875 48.328125 
Q 17.828125 56 27.875 56 
Q 33.9375 56 38.28125 53.609375 
Q 42.625 51.21875 45.40625 46.390625 
L 45.40625 54.6875 
L 54.390625 54.6875 
z
" id="DejaVuSans-67"/>
      <path d="M 8.015625 75.875 
L 15.828125 75.875 
Q 23.140625 64.359375 26.78125 53.3125 
Q 30.421875 42.28125 30.421875 31.390625 
Q 30.421875 20.453125 26.78125 9.375 
Q 23.140625 -1.703125 15.828125 -13.1875 
L 8.015625 -13.1875 
Q 14.5 -2 17.703125 9.0625 
Q 20.90625 20.125 20.90625 31.390625 
Q 20.90625 42.671875 17.703125 53.65625 
Q 14.5 64.65625 8.015625 75.875 
z
" id="DejaVuSans-29"/>
     </defs>
     <g transform="translate(159.838454 331.963116)scale(0.1 -0.1)">
      <use xlink:href="#DejaVuSans-47"/>
      <use x="77.490234" xlink:href="#DejaVuSans-72"/>
      <use x="118.603516" xlink:href="#DejaVuSans-61"/>
      <use x="179.882812" xlink:href="#DejaVuSans-70"/>
      <use x="243.359375" xlink:href="#DejaVuSans-68"/>
      <use x="306.738281" xlink:href="#DejaVuSans-20"/>
      <use x="338.525391" xlink:href="#DejaVuSans-45"/>
      <use x="401.708984" xlink:href="#DejaVuSans-6c"/>
      <use x="429.492188" xlink:href="#DejaVuSans-65"/>
      <use x="491.015625" xlink:href="#DejaVuSans-6d"/>
      <use x="588.427734" xlink:href="#DejaVuSans-65"/>
      <use x="649.951172" xlink:href="#DejaVuSans-6e"/>
      <use x="713.330078" xlink:href="#DejaVuSans-74"/>
      <use x="752.539062" xlink:href="#DejaVuSans-73"/>
      <use x="804.638672" xlink:href="#DejaVuSans-20"/>
      <use x="836.425781" xlink:href="#DejaVuSans-28"/>
      <use x="875.439453" xlink:href="#DejaVuSans-6e"/>
      <use x="938.818359" xlink:href="#DejaVuSans-6f"/>
      <use x="1000" xlink:href="#DejaVuSans-64"/>
      <use x="1063.476562" xlink:href="#DejaVuSans-65"/>
      <use x="1125" xlink:href="#DejaVuSans-73"/>
      <use x="1177.099609" xlink:href="#DejaVuSans-20"/>
      <use x="1208.886719" xlink:href="#DejaVuSans-2b"/>
      <use x="1292.675781" xlink:href="#DejaVuSans-20"/>
      <use x="1324.462891" xlink:href="#DejaVuSans-65"/>
      <use x="1385.986328" xlink:href="#DejaVuSans-64"/>
      <use x="1449.462891" xlink:href="#DejaVuSans-67"/>
      <use x="1512.939453" xlink:href="#DejaVuSans-65"/>
      <use x="1574.462891" xlink:href="#DejaVuSans-73"/>
      <use x="1626.5625" xlink:href="#DejaVuSans-29"/>
     </g>
    </g>
   </g>
   <g id="matplotlib.axis_2">
    <g id="ytick_1">
     <g id="line2d_16">
      <path clip-path="url(#p6044725421)" d="M 50.87 249.34815 
L 435.366283 249.34815 
" style="fill:none;stroke:#eeeeee;stroke-linecap:square;stroke-width:0.8;"/>
     </g>
     <g id="line2d_17">
      <defs>
       <path d="M 0 0 
L -3.5 0 
" id="m551625ca82" style="stroke:#000000;stroke-width:0.8;"/>
      </defs>
      <g>
       <use style="stroke:#000000;stroke-width:0.8;" x="50.87" xlink:href="#m551625ca82" y="249.34815"/>
      </g>
     </g>
     <g id="text_16">
      <!-- 0 -->
      <g transform="translate(37.5075 253.147369)scale(0.1 -0.1)">
       <use xlink:href="#DejaVuSans-30"/>
      </g>
     </g>
    </g>
    <g id="ytick_2">
     <g id="line2d_18">
      <path clip-path="url(#p6044725421)" d="M 50.87 214.058622 
L 435.366283 214.058622 
" style="fill:none;stroke:#eeeeee;stroke-linecap:square;stroke-width:0.8;"/>
     </g>
     <g id="line2d_19">
      <g>
       <use style="stroke:#000000;stroke-width:0.8;" x="50.87" xlink:href="#m551625ca82" y="214.058622"/>
      </g>
     </g>
     <g id="text_17">
      <!-- 100 -->
      <g transform="translate(24.7825 217.857841)scale(0.1 -0.1)">
       <use xlink:href="#DejaVuSans-31"/>
       <use x="63.623047" xlink:href="#DejaVuSans-30"/>
       <use x="127.246094" xlink:href="#DejaVuSans-30"/>
      </g>
     </g>
    </g>
    <g id="ytick_3">
     <g id="line2d_20">
      <path clip-path="url(#p6044725421)" d="M 50.87 178.769095 
L 435.366283 178.769095 
" style="fill:none;stroke:#eeeeee;stroke-linecap:square;stroke-width:0.8;"/>
     </g>
     <g id="line2d_21">
      <g>
       <use style="stroke:#000000;stroke-width:0.8;" x="50.87" xlink:href="#m551625ca82" y="178.769095"/>
      </g>
     </g>
     <g id="text_18">
      <!-- 200 -->
      <g transform="translate(24.7825 182.568313)scale(0.1 -0.1)">
       <use xlink:href="#DejaVuSans-32"/>
       <use x="63.623047" xlink:href="#DejaVuSans-30"/>
       <use x="127.246094" xlink:href="#DejaVuSans-30"/>
      </g>
     </g>
    </g>
    <g id="ytick_4">
     <g id="line2d_22">
      <path clip-path="url(#p6044725421)" d="M 50.87 143.479567 
L 435.366283 143.479567 
" style="fill:none;stroke:#eeeeee;stroke-linecap:square;stroke-width:0.8;"/>
     </g>
     <g id="line2d_23">
      <g>
       <use style="stroke:#000000;stroke-width:0.8;" x="50.87" xlink:href="#m551625ca82" y="143.479567"/>
      </g>
     </g>
     <g id="text_19">
      <!-- 300 -->
      <g transform="translate(24.7825 147.278786)scale(0.1 -0.1)">
       <use xlink:href="#DejaVuSans-33"/>
       <use x="63.623047" xlink:href="#DejaVuSans-30"/>
       <use x="127.246094" xlink:href="#DejaVuSans-30"/>
      </g>
     </g>
    </g>
    <g id="ytick_5">
     <g id="line2d_24">
      <path clip-path="url(#p6044725421)" d="M 50.87 108.190039 
L 435.366283 108.190039 
" style="fill:none;stroke:#eeeeee;stroke-linecap:square;stroke-width:0.8;"/>
     </g>
     <g id="line2d_25">
      <g>
       <use style="stroke:#000000;stroke-width:0.8;" x="50.87" xlink:href="#m551625ca82" y="108.190039"/>
      </g>
     </g>
     <g id="text_20">
      <!-- 400 -->
      <g transform="translate(24.7825 111.989258)scale(0.1 -0.1)">
       <use xlink:href="#DejaVuSans-34"/>
       <use x="63.623047" xlink:href="#DejaVuSans-30"/>
       <use x="127.246094" xlink:href="#DejaVuSans-30"/>
      </g>
     </g>
    </g>
    <g id="ytick_6">
     <g id="line2d_26">
      <path clip-path="url(#p6044725421)" d="M 50.87 72.900511 
L 435.366283 72.900511 
" style="fill:none;stroke:#eeeeee;stroke-linecap:square;stroke-width:0.8;"/>
     </g>
     <g id="line2d_27">
      <g>
       <use style="stroke:#000000;stroke-width:0.8;" x="50.87" xlink:href="#m551625ca82" y="72.900511"/>
      </g>
     </g>
     <g id="text_21">
      <!-- 500 -->
      <g transform="translate(24.7825 76.69973)scale(0.1 -0.1)">
       <use xlink:href="#DejaVuSans-35"/>
       <use x="63.623047" xlink:href="#DejaVuSans-30"/>
       <use x="127.246094" xlink:href="#DejaVuSans-30"/>
      </g>
     </g>
    </g>
    <g id="ytick_7">
     <g id="line2d_28">
      <path clip-path="url(#p6044725421)" d="M 50.87 37.610984 
L 435.366283 37.610984 
" style="fill:none;stroke:#eeeeee;stroke-linecap:square;stroke-width:0.8;"/>
     </g>
     <g id="line2d_29">
      <g>
       <use style="stroke:#000000;stroke-width:0.8;" x="50.87" xlink:href="#m551625ca82" y="37.610984"/>
      </g>
     </g>
     <g id="text_22">
      <!-- 600 -->
      <g transform="translate(24.7825 41.410202)scale(0.1 -0.1)">
       <use xlink:href="#DejaVuSans-36"/>
       <use x="63.623047" xlink:href="#DejaVuSans-30"/>
       <use x="127.246094" xlink:href="#DejaVuSans-30"/>
      </g>
     </g>
    </g>
    <g id="text_23">
     <!-- elkjs - elk [ms] -->
     <defs>
      <path d="M 9.078125 75.984375 
L 18.109375 75.984375 
L 18.109375 31.109375 
L 44.921875 54.6875 
L 56.390625 54.6875 
L 27.390625 29.109375 
L 57.625 0 
L 45.90625 0 
L 18.109375 26.703125 
L 18.109375 0 
L 9.078125 0 
z
" id="DejaVuSans-6b"/>
      <path d="M 9.421875 54.6875 
L 18.40625 54.6875 
L 18.40625 -0.984375 
Q 18.40625 -11.421875 14.421875 -16.109375 
Q 10.453125 -20.796875 1.609375 -20.796875 
L -1.8125 -20.796875 
L -1.8125 -13.1875 
L 0.59375 -13.1875 
Q 5.71875 -13.1875 7.5625 -10.8125 
Q 9.421875 -8.453125 9.421875 -0.984375 
z
M 9.421875 75.984375 
L 18.40625 75.984375 
L 18.40625 64.59375 
L 9.421875 64.59375 
z
" id="DejaVuSans-6a"/>
      <path d="M 4.890625 31.390625 
L 31.203125 31.390625 
L 31.203125 23.390625 
L 4.890625 23.390625 
z
" id="DejaVuSans-2d"/>
     </defs>
     <g transform="translate(18.702813 178.201924)rotate(-90)scale(0.1 -0.1)">
      <use xlink:href="#DejaVuSans-65"/>
      <use x="61.523438" xlink:href="#DejaVuSans-6c"/>
      <use x="89.306641" xlink:href="#DejaVuSans-6b"/>
      <use x="147.216797" xlink:href="#DejaVuSans-6a"/>
      <use x="175" xlink:href="#DejaVuSans-73"/>
      <use x="227.099609" xlink:href="#DejaVuSans-20"/>
      <use x="258.886719" xlink:href="#DejaVuSans-2d"/>
      <use x="294.970703" xlink:href="#DejaVuSans-20"/>
      <use x="326.757812" xlink:href="#DejaVuSans-65"/>
      <use x="388.28125" xlink:href="#DejaVuSans-6c"/>
      <use x="416.064453" xlink:href="#DejaVuSans-6b"/>
      <use x="473.974609" xlink:href="#DejaVuSans-20"/>
      <use x="505.761719" xlink:href="#DejaVuSans-5b"/>
      <use x="544.775391" xlink:href="#DejaVuSans-6d"/>
      <use x="642.1875" xlink:href="#DejaVuSans-73"/>
      <use x="694.287109" xlink:href="#DejaVuSans-5d"/>
     </g>
    </g>
   </g>
   <g id="line2d_30">
    <path clip-path="url(#p6044725421)" d="M 57.278271 247.583674 
L 70.094814 247.583674 
L 70.094814 244.584064 
L 57.278271 244.584064 
L 57.278271 247.583674 
" style="fill:none;stroke:#000000;stroke-linecap:square;"/>
   </g>
   <g id="line2d_31">
    <path clip-path="url(#p6044725421)" d="M 63.686543 247.583674 
L 63.686543 249.701046 
" style="fill:none;stroke:#000000;stroke-linecap:square;"/>
   </g>
   <g id="line2d_32">
    <path clip-path="url(#p6044725421)" d="M 63.686543 244.584064 
L 63.686543 240.172873 
" style="fill:none;stroke:#000000;stroke-linecap:square;"/>
   </g>
   <g id="line2d_33">
    <path clip-path="url(#p6044725421)" d="M 60.482407 249.701046 
L 66.890678 249.701046 
" style="fill:none;stroke:#000000;stroke-linecap:square;"/>
   </g>
   <g id="line2d_34">
    <path clip-path="url(#p6044725421)" d="M 60.482407 240.172873 
L 66.890678 240.172873 
" style="fill:none;stroke:#000000;stroke-linecap:square;"/>
   </g>
   <g id="line2d_35">
    <defs>
     <path d="M 0 3 
C 0.795609 3 1.55874 2.683901 2.12132 2.12132 
C 2.683901 1.55874 3 0.795609 3 0 
C 3 -0.795609 2.683901 -1.55874 2.12132 -2.12132 
C 1.55874 -2.683901 0.795609 -3 0 -3 
C -0.795609 -3 -1.55874 -2.683901 -2.12132 -2.12132 
C -2.683901 -1.55874 -3 -0.795609 -3 0 
C -3 0.795609 -2.683901 1.55874 -2.12132 2.12132 
C -1.55874 2.683901 -0.795609 3 0 3 
z
" id="m2aa048dabc" style="stroke:#000000;"/>
    </defs>
    <g clip-path="url(#p6044725421)">
     <use style="fill-opacity:0;stroke:#000000;" x="63.686543" xlink:href="#m2aa048dabc" y="237.349711"/>
     <use style="fill-opacity:0;stroke:#000000;" x="63.686543" xlink:href="#m2aa048dabc" y="229.93891"/>
     <use style="fill-opacity:0;stroke:#000000;" x="63.686543" xlink:href="#m2aa048dabc" y="223.2339"/>
     <use style="fill-opacity:0;stroke:#000000;" x="63.686543" xlink:href="#m2aa048dabc" y="239.467082"/>
     <use style="fill-opacity:0;stroke:#000000;" x="63.686543" xlink:href="#m2aa048dabc" y="238.055501"/>
     <use style="fill-opacity:0;stroke:#000000;" x="63.686543" xlink:href="#m2aa048dabc" y="142.067986"/>
     <use style="fill-opacity:0;stroke:#000000;" x="63.686543" xlink:href="#m2aa048dabc" y="225.351271"/>
     <use style="fill-opacity:0;stroke:#000000;" x="63.686543" xlink:href="#m2aa048dabc" y="237.349711"/>
     <use style="fill-opacity:0;stroke:#000000;" x="63.686543" xlink:href="#m2aa048dabc" y="239.819978"/>
     <use style="fill-opacity:0;stroke:#000000;" x="63.686543" xlink:href="#m2aa048dabc" y="239.819978"/>
     <use style="fill-opacity:0;stroke:#000000;" x="63.686543" xlink:href="#m2aa048dabc" y="239.467082"/>
     <use style="fill-opacity:0;stroke:#000000;" x="63.686543" xlink:href="#m2aa048dabc" y="239.114187"/>
     <use style="fill-opacity:0;stroke:#000000;" x="63.686543" xlink:href="#m2aa048dabc" y="231.350491"/>
     <use style="fill-opacity:0;stroke:#000000;" x="63.686543" xlink:href="#m2aa048dabc" y="144.891148"/>
     <use style="fill-opacity:0;stroke:#000000;" x="63.686543" xlink:href="#m2aa048dabc" y="81.722893"/>
     <use style="fill-opacity:0;stroke:#000000;" x="63.686543" xlink:href="#m2aa048dabc" y="218.293366"/>
     <use style="fill-opacity:0;stroke:#000000;" x="63.686543" xlink:href="#m2aa048dabc" y="109.248725"/>
     <use style="fill-opacity:0;stroke:#000000;" x="63.686543" xlink:href="#m2aa048dabc" y="229.586015"/>
     <use style="fill-opacity:0;stroke:#000000;" x="63.686543" xlink:href="#m2aa048dabc" y="235.232339"/>
     <use style="fill-opacity:0;stroke:#000000;" x="63.686543" xlink:href="#m2aa048dabc" y="230.644701"/>
     <use style="fill-opacity:0;stroke:#000000;" x="63.686543" xlink:href="#m2aa048dabc" y="171.005399"/>
     <use style="fill-opacity:0;stroke:#000000;" x="63.686543" xlink:href="#m2aa048dabc" y="236.291025"/>
     <use style="fill-opacity:0;stroke:#000000;" x="63.686543" xlink:href="#m2aa048dabc" y="161.830121"/>
     <use style="fill-opacity:0;stroke:#000000;" x="63.686543" xlink:href="#m2aa048dabc" y="239.819978"/>
     <use style="fill-opacity:0;stroke:#000000;" x="63.686543" xlink:href="#m2aa048dabc" y="228.880224"/>
     <use style="fill-opacity:0;stroke:#000000;" x="63.686543" xlink:href="#m2aa048dabc" y="231.703386"/>
     <use style="fill-opacity:0;stroke:#000000;" x="63.686543" xlink:href="#m2aa048dabc" y="137.833242"/>
     <use style="fill-opacity:0;stroke:#000000;" x="63.686543" xlink:href="#m2aa048dabc" y="226.762852"/>
     <use style="fill-opacity:0;stroke:#000000;" x="63.686543" xlink:href="#m2aa048dabc" y="221.469423"/>
     <use style="fill-opacity:0;stroke:#000000;" x="63.686543" xlink:href="#m2aa048dabc" y="239.819978"/>
     <use style="fill-opacity:0;stroke:#000000;" x="63.686543" xlink:href="#m2aa048dabc" y="223.586795"/>
     <use style="fill-opacity:0;stroke:#000000;" x="63.686543" xlink:href="#m2aa048dabc" y="153.71353"/>
     <use style="fill-opacity:0;stroke:#000000;" x="63.686543" xlink:href="#m2aa048dabc" y="212.647041"/>
     <use style="fill-opacity:0;stroke:#000000;" x="63.686543" xlink:href="#m2aa048dabc" y="212.999937"/>
     <use style="fill-opacity:0;stroke:#000000;" x="63.686543" xlink:href="#m2aa048dabc" y="211.941251"/>
     <use style="fill-opacity:0;stroke:#000000;" x="63.686543" xlink:href="#m2aa048dabc" y="230.997596"/>
     <use style="fill-opacity:0;stroke:#000000;" x="63.686543" xlink:href="#m2aa048dabc" y="238.055501"/>
     <use style="fill-opacity:0;stroke:#000000;" x="63.686543" xlink:href="#m2aa048dabc" y="239.114187"/>
     <use style="fill-opacity:0;stroke:#000000;" x="63.686543" xlink:href="#m2aa048dabc" y="209.823879"/>
     <use style="fill-opacity:0;stroke:#000000;" x="63.686543" xlink:href="#m2aa048dabc" y="228.527329"/>
     <use style="fill-opacity:0;stroke:#000000;" x="63.686543" xlink:href="#m2aa048dabc" y="217.23468"/>
     <use style="fill-opacity:0;stroke:#000000;" x="63.686543" xlink:href="#m2aa048dabc" y="236.64392"/>
     <use style="fill-opacity:0;stroke:#000000;" x="63.686543" xlink:href="#m2aa048dabc" y="236.291025"/>
     <use style="fill-opacity:0;stroke:#000000;" x="63.686543" xlink:href="#m2aa048dabc" y="232.409177"/>
     <use style="fill-opacity:0;stroke:#000000;" x="63.686543" xlink:href="#m2aa048dabc" y="222.175214"/>
     <use style="fill-opacity:0;stroke:#000000;" x="63.686543" xlink:href="#m2aa048dabc" y="238.408397"/>
     <use style="fill-opacity:0;stroke:#000000;" x="63.686543" xlink:href="#m2aa048dabc" y="160.771436"/>
     <use style="fill-opacity:0;stroke:#000000;" x="63.686543" xlink:href="#m2aa048dabc" y="225.704167"/>
     <use style="fill-opacity:0;stroke:#000000;" x="63.686543" xlink:href="#m2aa048dabc" y="236.996816"/>
     <use style="fill-opacity:0;stroke:#000000;" x="63.686543" xlink:href="#m2aa048dabc" y="238.761292"/>
     <use style="fill-opacity:0;stroke:#000000;" x="63.686543" xlink:href="#m2aa048dabc" y="203.471764"/>
     <use style="fill-opacity:0;stroke:#000000;" x="63.686543" xlink:href="#m2aa048dabc" y="105.013982"/>
     <use style="fill-opacity:0;stroke:#000000;" x="63.686543" xlink:href="#m2aa048dabc" y="236.291025"/>
     <use style="fill-opacity:0;stroke:#000000;" x="63.686543" xlink:href="#m2aa048dabc" y="33.37624"/>
     <use style="fill-opacity:0;stroke:#000000;" x="63.686543" xlink:href="#m2aa048dabc" y="215.823099"/>
     <use style="fill-opacity:0;stroke:#000000;" x="63.686543" xlink:href="#m2aa048dabc" y="119.482688"/>
     <use style="fill-opacity:0;stroke:#000000;" x="63.686543" xlink:href="#m2aa048dabc" y="228.174434"/>
     <use style="fill-opacity:0;stroke:#000000;" x="63.686543" xlink:href="#m2aa048dabc" y="229.233119"/>
     <use style="fill-opacity:0;stroke:#000000;" x="63.686543" xlink:href="#m2aa048dabc" y="228.880224"/>
     <use style="fill-opacity:0;stroke:#000000;" x="63.686543" xlink:href="#m2aa048dabc" y="235.232339"/>
     <use style="fill-opacity:0;stroke:#000000;" x="63.686543" xlink:href="#m2aa048dabc" y="163.947493"/>
     <use style="fill-opacity:0;stroke:#000000;" x="63.686543" xlink:href="#m2aa048dabc" y="220.057842"/>
     <use style="fill-opacity:0;stroke:#000000;" x="63.686543" xlink:href="#m2aa048dabc" y="173.828561"/>
     <use style="fill-opacity:0;stroke:#000000;" x="63.686543" xlink:href="#m2aa048dabc" y="233.467863"/>
     <use style="fill-opacity:0;stroke:#000000;" x="63.686543" xlink:href="#m2aa048dabc" y="232.056282"/>
     <use style="fill-opacity:0;stroke:#000000;" x="63.686543" xlink:href="#m2aa048dabc" y="219.704947"/>
     <use style="fill-opacity:0;stroke:#000000;" x="63.686543" xlink:href="#m2aa048dabc" y="216.528889"/>
     <use style="fill-opacity:0;stroke:#000000;" x="63.686543" xlink:href="#m2aa048dabc" y="85.251846"/>
     <use style="fill-opacity:0;stroke:#000000;" x="63.686543" xlink:href="#m2aa048dabc" y="225.704167"/>
     <use style="fill-opacity:0;stroke:#000000;" x="63.686543" xlink:href="#m2aa048dabc" y="220.057842"/>
     <use style="fill-opacity:0;stroke:#000000;" x="63.686543" xlink:href="#m2aa048dabc" y="221.469423"/>
     <use style="fill-opacity:0;stroke:#000000;" x="63.686543" xlink:href="#m2aa048dabc" y="236.996816"/>
     <use style="fill-opacity:0;stroke:#000000;" x="63.686543" xlink:href="#m2aa048dabc" y="231.703386"/>
     <use style="fill-opacity:0;stroke:#000000;" x="63.686543" xlink:href="#m2aa048dabc" y="239.114187"/>
     <use style="fill-opacity:0;stroke:#000000;" x="63.686543" xlink:href="#m2aa048dabc" y="217.587575"/>
     <use style="fill-opacity:0;stroke:#000000;" x="63.686543" xlink:href="#m2aa048dabc" y="95.838704"/>
     <use style="fill-opacity:0;stroke:#000000;" x="63.686543" xlink:href="#m2aa048dabc" y="239.114187"/>
     <use style="fill-opacity:0;stroke:#000000;" x="63.686543" xlink:href="#m2aa048dabc" y="191.473325"/>
     <use style="fill-opacity:0;stroke:#000000;" x="63.686543" xlink:href="#m2aa048dabc" y="191.120429"/>
     <use style="fill-opacity:0;stroke:#000000;" x="63.686543" xlink:href="#m2aa048dabc" y="188.650162"/>
     <use style="fill-opacity:0;stroke:#000000;" x="63.686543" xlink:href="#m2aa048dabc" y="213.352832"/>
     <use style="fill-opacity:0;stroke:#000000;" x="63.686543" xlink:href="#m2aa048dabc" y="235.232339"/>
     <use style="fill-opacity:0;stroke:#000000;" x="63.686543" xlink:href="#m2aa048dabc" y="237.702606"/>
     <use style="fill-opacity:0;stroke:#000000;" x="63.686543" xlink:href="#m2aa048dabc" y="239.467082"/>
     <use style="fill-opacity:0;stroke:#000000;" x="63.686543" xlink:href="#m2aa048dabc" y="221.822319"/>
     <use style="fill-opacity:0;stroke:#000000;" x="63.686543" xlink:href="#m2aa048dabc" y="239.467082"/>
     <use style="fill-opacity:0;stroke:#000000;" x="63.686543" xlink:href="#m2aa048dabc" y="221.822319"/>
     <use style="fill-opacity:0;stroke:#000000;" x="63.686543" xlink:href="#m2aa048dabc" y="237.349711"/>
     <use style="fill-opacity:0;stroke:#000000;" x="63.686543" xlink:href="#m2aa048dabc" y="239.819978"/>
     <use style="fill-opacity:0;stroke:#000000;" x="63.686543" xlink:href="#m2aa048dabc" y="236.291025"/>
     <use style="fill-opacity:0;stroke:#000000;" x="63.686543" xlink:href="#m2aa048dabc" y="200.648602"/>
     <use style="fill-opacity:0;stroke:#000000;" x="63.686543" xlink:href="#m2aa048dabc" y="221.469423"/>
     <use style="fill-opacity:0;stroke:#000000;" x="63.686543" xlink:href="#m2aa048dabc" y="234.879444"/>
     <use style="fill-opacity:0;stroke:#000000;" x="63.686543" xlink:href="#m2aa048dabc" y="196.766754"/>
     <use style="fill-opacity:0;stroke:#000000;" x="63.686543" xlink:href="#m2aa048dabc" y="236.64392"/>
     <use style="fill-opacity:0;stroke:#000000;" x="63.686543" xlink:href="#m2aa048dabc" y="232.762072"/>
     <use style="fill-opacity:0;stroke:#000000;" x="63.686543" xlink:href="#m2aa048dabc" y="234.526549"/>
    </g>
   </g>
   <g id="line2d_36">
    <path clip-path="url(#p6044725421)" d="M 0 0 
" style="fill:none;stroke:#000000;stroke-linecap:square;"/>
   </g>
   <g id="line2d_37">
    <path clip-path="url(#p6044725421)" d="M 0 0 
" style="fill:none;stroke:#000000;stroke-linecap:square;"/>
   </g>
   <g id="line2d_38">
    <path clip-path="url(#p6044725421)" d="M 0 0 
" style="fill:none;stroke:#000000;stroke-linecap:square;"/>
   </g>
   <g id="line2d_39">
    <path clip-path="url(#p6044725421)" d="M 0 0 
" style="fill:none;stroke:#000000;stroke-linecap:square;"/>
   </g>
   <g id="line2d_40">
    <path clip-path="url(#p6044725421)" d="M 0 0 
" style="fill:none;stroke:#000000;stroke-linecap:square;"/>
   </g>
   <g id="line2d_41"/>
   <g id="line2d_42">
    <path clip-path="url(#p6044725421)" d="M 108.544442 247.583674 
L 121.360985 247.583674 
L 121.360985 246.172093 
L 108.544442 246.172093 
L 108.544442 247.583674 
" style="fill:none;stroke:#000000;stroke-linecap:square;"/>
   </g>
   <g id="line2d_43">
    <path clip-path="url(#p6044725421)" d="M 114.952714 247.583674 
L 114.952714 249.701046 
" style="fill:none;stroke:#000000;stroke-linecap:square;"/>
   </g>
   <g id="line2d_44">
    <path clip-path="url(#p6044725421)" d="M 114.952714 246.172093 
L 114.952714 244.054721 
" style="fill:none;stroke:#000000;stroke-linecap:square;"/>
   </g>
   <g id="line2d_45">
    <path clip-path="url(#p6044725421)" d="M 111.748578 249.701046 
L 118.156849 249.701046 
" style="fill:none;stroke:#000000;stroke-linecap:square;"/>
   </g>
   <g id="line2d_46">
    <path clip-path="url(#p6044725421)" d="M 111.748578 244.054721 
L 118.156849 244.054721 
" style="fill:none;stroke:#000000;stroke-linecap:square;"/>
   </g>
   <g id="line2d_47">
    <g clip-path="url(#p6044725421)">
     <use style="fill-opacity:0;stroke:#000000;" x="114.952714" xlink:href="#m2aa048dabc" y="240.525768"/>
     <use style="fill-opacity:0;stroke:#000000;" x="114.952714" xlink:href="#m2aa048dabc" y="237.349711"/>
     <use style="fill-opacity:0;stroke:#000000;" x="114.952714" xlink:href="#m2aa048dabc" y="242.996035"/>
     <use style="fill-opacity:0;stroke:#000000;" x="114.952714" xlink:href="#m2aa048dabc" y="239.467082"/>
     <use style="fill-opacity:0;stroke:#000000;" x="114.952714" xlink:href="#m2aa048dabc" y="241.584454"/>
     <use style="fill-opacity:0;stroke:#000000;" x="114.952714" xlink:href="#m2aa048dabc" y="242.64314"/>
     <use style="fill-opacity:0;stroke:#000000;" x="114.952714" xlink:href="#m2aa048dabc" y="238.055501"/>
     <use style="fill-opacity:0;stroke:#000000;" x="114.952714" xlink:href="#m2aa048dabc" y="239.114187"/>
     <use style="fill-opacity:0;stroke:#000000;" x="114.952714" xlink:href="#m2aa048dabc" y="243.348931"/>
     <use style="fill-opacity:0;stroke:#000000;" x="114.952714" xlink:href="#m2aa048dabc" y="240.525768"/>
     <use style="fill-opacity:0;stroke:#000000;" x="114.952714" xlink:href="#m2aa048dabc" y="243.348931"/>
     <use style="fill-opacity:0;stroke:#000000;" x="114.952714" xlink:href="#m2aa048dabc" y="242.290245"/>
     <use style="fill-opacity:0;stroke:#000000;" x="114.952714" xlink:href="#m2aa048dabc" y="238.055501"/>
     <use style="fill-opacity:0;stroke:#000000;" x="114.952714" xlink:href="#m2aa048dabc" y="239.114187"/>
     <use style="fill-opacity:0;stroke:#000000;" x="114.952714" xlink:href="#m2aa048dabc" y="243.701826"/>
     <use style="fill-opacity:0;stroke:#000000;" x="114.952714" xlink:href="#m2aa048dabc" y="236.64392"/>
     <use style="fill-opacity:0;stroke:#000000;" x="114.952714" xlink:href="#m2aa048dabc" y="236.291025"/>
     <use style="fill-opacity:0;stroke:#000000;" x="114.952714" xlink:href="#m2aa048dabc" y="242.64314"/>
     <use style="fill-opacity:0;stroke:#000000;" x="114.952714" xlink:href="#m2aa048dabc" y="242.996035"/>
     <use style="fill-opacity:0;stroke:#000000;" x="114.952714" xlink:href="#m2aa048dabc" y="243.348931"/>
     <use style="fill-opacity:0;stroke:#000000;" x="114.952714" xlink:href="#m2aa048dabc" y="238.761292"/>
     <use style="fill-opacity:0;stroke:#000000;" x="114.952714" xlink:href="#m2aa048dabc" y="233.467863"/>
     <use style="fill-opacity:0;stroke:#000000;" x="114.952714" xlink:href="#m2aa048dabc" y="242.290245"/>
     <use style="fill-opacity:0;stroke:#000000;" x="114.952714" xlink:href="#m2aa048dabc" y="236.996816"/>
     <use style="fill-opacity:0;stroke:#000000;" x="114.952714" xlink:href="#m2aa048dabc" y="239.114187"/>
     <use style="fill-opacity:0;stroke:#000000;" x="114.952714" xlink:href="#m2aa048dabc" y="243.348931"/>
     <use style="fill-opacity:0;stroke:#000000;" x="114.952714" xlink:href="#m2aa048dabc" y="240.525768"/>
     <use style="fill-opacity:0;stroke:#000000;" x="114.952714" xlink:href="#m2aa048dabc" y="239.819978"/>
     <use style="fill-opacity:0;stroke:#000000;" x="114.952714" xlink:href="#m2aa048dabc" y="242.996035"/>
     <use style="fill-opacity:0;stroke:#000000;" x="114.952714" xlink:href="#m2aa048dabc" y="241.584454"/>
     <use style="fill-opacity:0;stroke:#000000;" x="114.952714" xlink:href="#m2aa048dabc" y="232.762072"/>
    </g>
   </g>
   <g id="line2d_48">
    <path clip-path="url(#p6044725421)" d="M 134.177528 239.819978 
L 146.994071 239.819978 
L 146.994071 230.644701 
L 134.177528 230.644701 
L 134.177528 239.819978 
" style="fill:none;stroke:#000000;stroke-linecap:square;"/>
   </g>
   <g id="line2d_49">
    <path clip-path="url(#p6044725421)" d="M 140.585799 239.819978 
L 140.585799 247.583674 
" style="fill:none;stroke:#000000;stroke-linecap:square;"/>
   </g>
   <g id="line2d_50">
    <path clip-path="url(#p6044725421)" d="M 140.585799 230.644701 
L 140.585799 219.704947 
" style="fill:none;stroke:#000000;stroke-linecap:square;"/>
   </g>
   <g id="line2d_51">
    <path clip-path="url(#p6044725421)" d="M 137.381664 247.583674 
L 143.789935 247.583674 
" style="fill:none;stroke:#000000;stroke-linecap:square;"/>
   </g>
   <g id="line2d_52">
    <path clip-path="url(#p6044725421)" d="M 137.381664 219.704947 
L 143.789935 219.704947 
" style="fill:none;stroke:#000000;stroke-linecap:square;"/>
   </g>
   <g id="line2d_53"/>
   <g id="line2d_54">
    <path clip-path="url(#p6044725421)" d="M 159.810613 228.262657 
L 172.627156 228.262657 
L 172.627156 213.264608 
L 159.810613 213.264608 
L 159.810613 228.262657 
" style="fill:none;stroke:#000000;stroke-linecap:square;"/>
   </g>
   <g id="line2d_55">
    <path clip-path="url(#p6044725421)" d="M 166.218885 228.262657 
L 166.218885 235.232339 
" style="fill:none;stroke:#000000;stroke-linecap:square;"/>
   </g>
   <g id="line2d_56">
    <path clip-path="url(#p6044725421)" d="M 166.218885 213.264608 
L 166.218885 203.471764 
" style="fill:none;stroke:#000000;stroke-linecap:square;"/>
   </g>
   <g id="line2d_57">
    <path clip-path="url(#p6044725421)" d="M 163.014749 235.232339 
L 169.42302 235.232339 
" style="fill:none;stroke:#000000;stroke-linecap:square;"/>
   </g>
   <g id="line2d_58">
    <path clip-path="url(#p6044725421)" d="M 163.014749 203.471764 
L 169.42302 203.471764 
" style="fill:none;stroke:#000000;stroke-linecap:square;"/>
   </g>
   <g id="line2d_59">
    <g clip-path="url(#p6044725421)">
     <use style="fill-opacity:0;stroke:#000000;" x="166.218885" xlink:href="#m2aa048dabc" y="171.005399"/>
    </g>
   </g>
   <g id="line2d_60">
    <path clip-path="url(#p6044725421)" d="M 185.443699 211.588356 
L 198.260242 211.588356 
L 198.260242 170.12316 
L 185.443699 170.12316 
L 185.443699 211.588356 
" style="fill:none;stroke:#000000;stroke-linecap:square;"/>
   </g>
   <g id="line2d_61">
    <path clip-path="url(#p6044725421)" d="M 191.85197 211.588356 
L 191.85197 229.233119 
" style="fill:none;stroke:#000000;stroke-linecap:square;"/>
   </g>
   <g id="line2d_62">
    <path clip-path="url(#p6044725421)" d="M 191.85197 170.12316 
L 191.85197 161.830121 
" style="fill:none;stroke:#000000;stroke-linecap:square;"/>
   </g>
   <g id="line2d_63">
    <path clip-path="url(#p6044725421)" d="M 188.647835 229.233119 
L 195.056106 229.233119 
" style="fill:none;stroke:#000000;stroke-linecap:square;"/>
   </g>
   <g id="line2d_64">
    <path clip-path="url(#p6044725421)" d="M 188.647835 161.830121 
L 195.056106 161.830121 
" style="fill:none;stroke:#000000;stroke-linecap:square;"/>
   </g>
   <g id="line2d_65"/>
   <g id="line2d_66">
    <path clip-path="url(#p6044725421)" d="M 211.076784 214.323294 
L 223.893327 214.323294 
L 223.893327 193.502473 
L 211.076784 193.502473 
L 211.076784 214.323294 
" style="fill:none;stroke:#000000;stroke-linecap:square;"/>
   </g>
   <g id="line2d_67">
    <path clip-path="url(#p6044725421)" d="M 217.485056 214.323294 
L 217.485056 217.23468 
" style="fill:none;stroke:#000000;stroke-linecap:square;"/>
   </g>
   <g id="line2d_68">
    <path clip-path="url(#p6044725421)" d="M 217.485056 193.502473 
L 217.485056 173.828561 
" style="fill:none;stroke:#000000;stroke-linecap:square;"/>
   </g>
   <g id="line2d_69">
    <path clip-path="url(#p6044725421)" d="M 214.28092 217.23468 
L 220.689191 217.23468 
" style="fill:none;stroke:#000000;stroke-linecap:square;"/>
   </g>
   <g id="line2d_70">
    <path clip-path="url(#p6044725421)" d="M 214.28092 173.828561 
L 220.689191 173.828561 
" style="fill:none;stroke:#000000;stroke-linecap:square;"/>
   </g>
   <g id="line2d_71"/>
   <g id="line2d_72">
    <path clip-path="url(#p6044725421)" d="M 0 0 
" style="fill:none;stroke:#000000;stroke-linecap:square;"/>
   </g>
   <g id="line2d_73">
    <path clip-path="url(#p6044725421)" d="M 0 0 
" style="fill:none;stroke:#000000;stroke-linecap:square;"/>
   </g>
   <g id="line2d_74">
    <path clip-path="url(#p6044725421)" d="M 0 0 
" style="fill:none;stroke:#000000;stroke-linecap:square;"/>
   </g>
   <g id="line2d_75">
    <path clip-path="url(#p6044725421)" d="M 0 0 
" style="fill:none;stroke:#000000;stroke-linecap:square;"/>
   </g>
   <g id="line2d_76">
    <path clip-path="url(#p6044725421)" d="M 0 0 
" style="fill:none;stroke:#000000;stroke-linecap:square;"/>
   </g>
   <g id="line2d_77"/>
   <g id="line2d_78">
    <path clip-path="url(#p6044725421)" d="M 262.342955 164.476836 
L 275.159498 164.476836 
L 275.159498 144.185357 
L 262.342955 144.185357 
L 262.342955 164.476836 
" style="fill:none;stroke:#000000;stroke-linecap:square;"/>
   </g>
   <g id="line2d_79">
    <path clip-path="url(#p6044725421)" d="M 268.751227 164.476836 
L 268.751227 164.476836 
" style="fill:none;stroke:#000000;stroke-linecap:square;"/>
   </g>
   <g id="line2d_80">
    <path clip-path="url(#p6044725421)" d="M 268.751227 144.185357 
L 268.751227 142.067986 
" style="fill:none;stroke:#000000;stroke-linecap:square;"/>
   </g>
   <g id="line2d_81">
    <path clip-path="url(#p6044725421)" d="M 265.547091 164.476836 
L 271.955362 164.476836 
" style="fill:none;stroke:#000000;stroke-linecap:square;"/>
   </g>
   <g id="line2d_82">
    <path clip-path="url(#p6044725421)" d="M 265.547091 142.067986 
L 271.955362 142.067986 
" style="fill:none;stroke:#000000;stroke-linecap:square;"/>
   </g>
   <g id="line2d_83">
    <g clip-path="url(#p6044725421)">
     <use style="fill-opacity:0;stroke:#000000;" x="268.751227" xlink:href="#m2aa048dabc" y="196.766754"/>
    </g>
   </g>
   <g id="line2d_84">
    <path clip-path="url(#p6044725421)" d="M 287.976041 147.890758 
L 300.792584 147.890758 
L 300.792584 122.129403 
L 287.976041 122.129403 
L 287.976041 147.890758 
" style="fill:none;stroke:#000000;stroke-linecap:square;"/>
   </g>
   <g id="line2d_85">
    <path clip-path="url(#p6044725421)" d="M 294.384312 147.890758 
L 294.384312 160.771436 
" style="fill:none;stroke:#000000;stroke-linecap:square;"/>
   </g>
   <g id="line2d_86">
    <path clip-path="url(#p6044725421)" d="M 294.384312 122.129403 
L 294.384312 109.248725 
" style="fill:none;stroke:#000000;stroke-linecap:square;"/>
   </g>
   <g id="line2d_87">
    <path clip-path="url(#p6044725421)" d="M 291.180177 160.771436 
L 297.588448 160.771436 
" style="fill:none;stroke:#000000;stroke-linecap:square;"/>
   </g>
   <g id="line2d_88">
    <path clip-path="url(#p6044725421)" d="M 291.180177 109.248725 
L 297.588448 109.248725 
" style="fill:none;stroke:#000000;stroke-linecap:square;"/>
   </g>
   <g id="line2d_89"/>
   <g id="line2d_90">
    <path clip-path="url(#p6044725421)" d="M 313.609126 119.482688 
L 326.425669 119.482688 
L 326.425669 119.482688 
L 313.609126 119.482688 
L 313.609126 119.482688 
" style="fill:none;stroke:#000000;stroke-linecap:square;"/>
   </g>
   <g id="line2d_91">
    <path clip-path="url(#p6044725421)" d="M 320.017398 119.482688 
L 320.017398 119.482688 
" style="fill:none;stroke:#000000;stroke-linecap:square;"/>
   </g>
   <g id="line2d_92">
    <path clip-path="url(#p6044725421)" d="M 320.017398 119.482688 
L 320.017398 119.482688 
" style="fill:none;stroke:#000000;stroke-linecap:square;"/>
   </g>
   <g id="line2d_93">
    <path clip-path="url(#p6044725421)" d="M 316.813262 119.482688 
L 323.221533 119.482688 
" style="fill:none;stroke:#000000;stroke-linecap:square;"/>
   </g>
   <g id="line2d_94">
    <path clip-path="url(#p6044725421)" d="M 316.813262 119.482688 
L 323.221533 119.482688 
" style="fill:none;stroke:#000000;stroke-linecap:square;"/>
   </g>
   <g id="line2d_95"/>
   <g id="line2d_96">
    <path clip-path="url(#p6044725421)" d="M 339.242212 121.423612 
L 352.058755 121.423612 
L 352.058755 100.426343 
L 339.242212 100.426343 
L 339.242212 121.423612 
" style="fill:none;stroke:#000000;stroke-linecap:square;"/>
   </g>
   <g id="line2d_97">
    <path clip-path="url(#p6044725421)" d="M 345.650483 121.423612 
L 345.650483 137.833242 
" style="fill:none;stroke:#000000;stroke-linecap:square;"/>
   </g>
   <g id="line2d_98">
    <path clip-path="url(#p6044725421)" d="M 345.650483 100.426343 
L 345.650483 95.838704 
" style="fill:none;stroke:#000000;stroke-linecap:square;"/>
   </g>
   <g id="line2d_99">
    <path clip-path="url(#p6044725421)" d="M 342.446348 137.833242 
L 348.854619 137.833242 
" style="fill:none;stroke:#000000;stroke-linecap:square;"/>
   </g>
   <g id="line2d_100">
    <path clip-path="url(#p6044725421)" d="M 342.446348 95.838704 
L 348.854619 95.838704 
" style="fill:none;stroke:#000000;stroke-linecap:square;"/>
   </g>
   <g id="line2d_101"/>
   <g id="line2d_102">
    <path clip-path="url(#p6044725421)" d="M 364.875297 85.251846 
L 377.69184 85.251846 
L 377.69184 85.251846 
L 364.875297 85.251846 
L 364.875297 85.251846 
" style="fill:none;stroke:#000000;stroke-linecap:square;"/>
   </g>
   <g id="line2d_103">
    <path clip-path="url(#p6044725421)" d="M 371.283569 85.251846 
L 371.283569 85.251846 
" style="fill:none;stroke:#000000;stroke-linecap:square;"/>
   </g>
   <g id="line2d_104">
    <path clip-path="url(#p6044725421)" d="M 371.283569 85.251846 
L 371.283569 85.251846 
" style="fill:none;stroke:#000000;stroke-linecap:square;"/>
   </g>
   <g id="line2d_105">
    <path clip-path="url(#p6044725421)" d="M 368.079433 85.251846 
L 374.487704 85.251846 
" style="fill:none;stroke:#000000;stroke-linecap:square;"/>
   </g>
   <g id="line2d_106">
    <path clip-path="url(#p6044725421)" d="M 368.079433 85.251846 
L 374.487704 85.251846 
" style="fill:none;stroke:#000000;stroke-linecap:square;"/>
   </g>
   <g id="line2d_107"/>
   <g id="line2d_108">
    <path clip-path="url(#p6044725421)" d="M 390.508383 81.722893 
L 403.324926 81.722893 
L 403.324926 81.722893 
L 390.508383 81.722893 
L 390.508383 81.722893 
" style="fill:none;stroke:#000000;stroke-linecap:square;"/>
   </g>
   <g id="line2d_109">
    <path clip-path="url(#p6044725421)" d="M 396.916654 81.722893 
L 396.916654 81.722893 
" style="fill:none;stroke:#000000;stroke-linecap:square;"/>
   </g>
   <g id="line2d_110">
    <path clip-path="url(#p6044725421)" d="M 396.916654 81.722893 
L 396.916654 81.722893 
" style="fill:none;stroke:#000000;stroke-linecap:square;"/>
   </g>
   <g id="line2d_111">
    <path clip-path="url(#p6044725421)" d="M 393.712519 81.722893 
L 400.12079 81.722893 
" style="fill:none;stroke:#000000;stroke-linecap:square;"/>
   </g>
   <g id="line2d_112">
    <path clip-path="url(#p6044725421)" d="M 393.712519 81.722893 
L 400.12079 81.722893 
" style="fill:none;stroke:#000000;stroke-linecap:square;"/>
   </g>
   <g id="line2d_113"/>
   <g id="line2d_114">
    <path clip-path="url(#p6044725421)" d="M 416.141468 33.37624 
L 428.958011 33.37624 
L 428.958011 33.37624 
L 416.141468 33.37624 
L 416.141468 33.37624 
" style="fill:none;stroke:#000000;stroke-linecap:square;"/>
   </g>
   <g id="line2d_115">
    <path clip-path="url(#p6044725421)" d="M 422.54974 33.37624 
L 422.54974 33.37624 
" style="fill:none;stroke:#000000;stroke-linecap:square;"/>
   </g>
   <g id="line2d_116">
    <path clip-path="url(#p6044725421)" d="M 422.54974 33.37624 
L 422.54974 33.37624 
" style="fill:none;stroke:#000000;stroke-linecap:square;"/>
   </g>
   <g id="line2d_117">
    <path clip-path="url(#p6044725421)" d="M 419.345604 33.37624 
L 425.753875 33.37624 
" style="fill:none;stroke:#000000;stroke-linecap:square;"/>
   </g>
   <g id="line2d_118">
    <path clip-path="url(#p6044725421)" d="M 419.345604 33.37624 
L 425.753875 33.37624 
" style="fill:none;stroke:#000000;stroke-linecap:square;"/>
   </g>
   <g id="line2d_119"/>
   <g id="line2d_120">
    <path clip-path="url(#p6044725421)" d="M 57.278271 246.877883 
L 70.094814 246.877883 
" style="fill:none;stroke:#ff7f0e;stroke-linecap:square;"/>
   </g>
   <g id="line2d_121">
    <path clip-path="url(#p6044725421)" d="M 0 0 
" style="fill:none;stroke:#ff7f0e;stroke-linecap:square;"/>
   </g>
   <g id="line2d_122">
    <path clip-path="url(#p6044725421)" d="M 108.544442 247.230779 
L 121.360985 247.230779 
" style="fill:none;stroke:#ff7f0e;stroke-linecap:square;"/>
   </g>
   <g id="line2d_123">
    <path clip-path="url(#p6044725421)" d="M 134.177528 236.64392 
L 146.994071 236.64392 
" style="fill:none;stroke:#ff7f0e;stroke-linecap:square;"/>
   </g>
   <g id="line2d_124">
    <path clip-path="url(#p6044725421)" d="M 159.810613 221.469423 
L 172.627156 221.469423 
" style="fill:none;stroke:#ff7f0e;stroke-linecap:square;"/>
   </g>
   <g id="line2d_125">
    <path clip-path="url(#p6044725421)" d="M 185.443699 190.061744 
L 198.260242 190.061744 
" style="fill:none;stroke:#ff7f0e;stroke-linecap:square;"/>
   </g>
   <g id="line2d_126">
    <path clip-path="url(#p6044725421)" d="M 211.076784 205.236241 
L 223.893327 205.236241 
" style="fill:none;stroke:#ff7f0e;stroke-linecap:square;"/>
   </g>
   <g id="line2d_127">
    <path clip-path="url(#p6044725421)" d="M 0 0 
" style="fill:none;stroke:#ff7f0e;stroke-linecap:square;"/>
   </g>
   <g id="line2d_128">
    <path clip-path="url(#p6044725421)" d="M 262.342955 149.302339 
L 275.159498 149.302339 
" style="fill:none;stroke:#ff7f0e;stroke-linecap:square;"/>
   </g>
   <g id="line2d_129">
    <path clip-path="url(#p6044725421)" d="M 287.976041 135.01008 
L 300.792584 135.01008 
" style="fill:none;stroke:#ff7f0e;stroke-linecap:square;"/>
   </g>
   <g id="line2d_130">
    <path clip-path="url(#p6044725421)" d="M 313.609126 119.482688 
L 326.425669 119.482688 
" style="fill:none;stroke:#ff7f0e;stroke-linecap:square;"/>
   </g>
   <g id="line2d_131">
    <path clip-path="url(#p6044725421)" d="M 339.242212 105.013982 
L 352.058755 105.013982 
" style="fill:none;stroke:#ff7f0e;stroke-linecap:square;"/>
   </g>
   <g id="line2d_132">
    <path clip-path="url(#p6044725421)" d="M 364.875297 85.251846 
L 377.69184 85.251846 
" style="fill:none;stroke:#ff7f0e;stroke-linecap:square;"/>
   </g>
   <g id="line2d_133">
    <path clip-path="url(#p6044725421)" d="M 390.508383 81.722893 
L 403.324926 81.722893 
" style="fill:none;stroke:#ff7f0e;stroke-linecap:square;"/>
   </g>
   <g id="line2d_134">
    <path clip-path="url(#p6044725421)" d="M 416.141468 33.37624 
L 428.958011 33.37624 
" style="fill:none;stroke:#ff7f0e;stroke-linecap:square;"/>
   </g>
   <g id="patch_3">
    <path d="M 50.87 260.517286 
L 50.87 22.56 
" style="fill:none;stroke:#000000;stroke-linecap:square;stroke-linejoin:miter;stroke-width:0.8;"/>
   </g>
   <g id="patch_4">
    <path d="M 435.366283 260.517286 
L 435.366283 22.56 
" style="fill:none;stroke:#000000;stroke-linecap:square;stroke-linejoin:miter;stroke-width:0.8;"/>
   </g>
   <g id="patch_5">
    <path d="M 50.87 260.517286 
L 435.366283 260.517286 
" style="fill:none;stroke:#000000;stroke-linecap:square;stroke-linejoin:miter;stroke-width:0.8;"/>
   </g>
   <g id="patch_6">
    <path d="M 50.87 22.56 
L 435.366283 22.56 
" style="fill:none;stroke:#000000;stroke-linecap:square;stroke-linejoin:miter;stroke-width:0.8;"/>
   </g>
   <g id="text_24">
    <!-- elk: 0.7.0-SNAPSHOT, elkjs: 0.7.0-SNAPSHOT, java: 1.8.0_252, node: v12.18.2 -->
    <defs>
     <path d="M 11.71875 12.40625 
L 22.015625 12.40625 
L 22.015625 0 
L 11.71875 0 
z
M 11.71875 51.703125 
L 22.015625 51.703125 
L 22.015625 39.3125 
L 11.71875 39.3125 
z
" id="DejaVuSans-3a"/>
     <path d="M 10.6875 12.40625 
L 21 12.40625 
L 21 0 
L 10.6875 0 
z
" id="DejaVuSans-2e"/>
     <path d="M 53.515625 70.515625 
L 53.515625 60.890625 
Q 47.90625 63.578125 42.921875 64.890625 
Q 37.9375 66.21875 33.296875 66.21875 
Q 25.25 66.21875 20.875 63.09375 
Q 16.5 59.96875 16.5 54.203125 
Q 16.5 49.359375 19.40625 46.890625 
Q 22.3125 44.4375 30.421875 42.921875 
L 36.375 41.703125 
Q 47.40625 39.59375 52.65625 34.296875 
Q 57.90625 29 57.90625 20.125 
Q 57.90625 9.515625 50.796875 4.046875 
Q 43.703125 -1.421875 29.984375 -1.421875 
Q 24.8125 -1.421875 18.96875 -0.25 
Q 13.140625 0.921875 6.890625 3.21875 
L 6.890625 13.375 
Q 12.890625 10.015625 18.65625 8.296875 
Q 24.421875 6.59375 29.984375 6.59375 
Q 38.421875 6.59375 43.015625 9.90625 
Q 47.609375 13.234375 47.609375 19.390625 
Q 47.609375 24.75 44.3125 27.78125 
Q 41.015625 30.8125 33.5 32.328125 
L 27.484375 33.5 
Q 16.453125 35.6875 11.515625 40.375 
Q 6.59375 45.0625 6.59375 53.421875 
Q 6.59375 63.09375 13.40625 68.65625 
Q 20.21875 74.21875 32.171875 74.21875 
Q 37.3125 74.21875 42.625 73.28125 
Q 47.953125 72.359375 53.515625 70.515625 
z
" id="DejaVuSans-53"/>
     <path d="M 9.8125 72.90625 
L 23.09375 72.90625 
L 55.421875 11.921875 
L 55.421875 72.90625 
L 64.984375 72.90625 
L 64.984375 0 
L 51.703125 0 
L 19.390625 60.984375 
L 19.390625 0 
L 9.8125 0 
z
" id="DejaVuSans-4e"/>
     <path d="M 19.671875 64.796875 
L 19.671875 37.40625 
L 32.078125 37.40625 
Q 38.96875 37.40625 42.71875 40.96875 
Q 46.484375 44.53125 46.484375 51.125 
Q 46.484375 57.671875 42.71875 61.234375 
Q 38.96875 64.796875 32.078125 64.796875 
z
M 9.8125 72.90625 
L 32.078125 72.90625 
Q 44.34375 72.90625 50.609375 67.359375 
Q 56.890625 61.8125 56.890625 51.125 
Q 56.890625 40.328125 50.609375 34.8125 
Q 44.34375 29.296875 32.078125 29.296875 
L 19.671875 29.296875 
L 19.671875 0 
L 9.8125 0 
z
" id="DejaVuSans-50"/>
     <path d="M 9.8125 72.90625 
L 19.671875 72.90625 
L 19.671875 43.015625 
L 55.515625 43.015625 
L 55.515625 72.90625 
L 65.375 72.90625 
L 65.375 0 
L 55.515625 0 
L 55.515625 34.71875 
L 19.671875 34.71875 
L 19.671875 0 
L 9.8125 0 
z
" id="DejaVuSans-48"/>
     <path d="M 39.40625 66.21875 
Q 28.65625 66.21875 22.328125 58.203125 
Q 16.015625 50.203125 16.015625 36.375 
Q 16.015625 22.609375 22.328125 14.59375 
Q 28.65625 6.59375 39.40625 6.59375 
Q 50.140625 6.59375 56.421875 14.59375 
Q 62.703125 22.609375 62.703125 36.375 
Q 62.703125 50.203125 56.421875 58.203125 
Q 50.140625 66.21875 39.40625 66.21875 
z
M 39.40625 74.21875 
Q 54.734375 74.21875 63.90625 63.9375 
Q 73.09375 53.65625 73.09375 36.375 
Q 73.09375 19.140625 63.90625 8.859375 
Q 54.734375 -1.421875 39.40625 -1.421875 
Q 24.03125 -1.421875 14.8125 8.828125 
Q 5.609375 19.09375 5.609375 36.375 
Q 5.609375 53.65625 14.8125 63.9375 
Q 24.03125 74.21875 39.40625 74.21875 
z
" id="DejaVuSans-4f"/>
     <path d="M -0.296875 72.90625 
L 61.375 72.90625 
L 61.375 64.59375 
L 35.5 64.59375 
L 35.5 0 
L 25.59375 0 
L 25.59375 64.59375 
L -0.296875 64.59375 
z
" id="DejaVuSans-54"/>
     <path d="M 2.984375 54.6875 
L 12.5 54.6875 
L 29.59375 8.796875 
L 46.6875 54.6875 
L 56.203125 54.6875 
L 35.6875 0 
L 23.484375 0 
z
" id="DejaVuSans-76"/>
     <path d="M 50.984375 -16.609375 
L 50.984375 -23.578125 
L -0.984375 -23.578125 
L -0.984375 -16.609375 
z
" id="DejaVuSans-5f"/>
    </defs>
    <g transform="translate(87.351266 16.56)scale(0.08 -0.08)">
     <use xlink:href="#DejaVuSans-65"/>
     <use x="61.523438" xlink:href="#DejaVuSans-6c"/>
     <use x="89.306641" xlink:href="#DejaVuSans-6b"/>
     <use x="147.216797" xlink:href="#DejaVuSans-3a"/>
     <use x="180.908203" xlink:href="#DejaVuSans-20"/>
     <use x="212.695312" xlink:href="#DejaVuSans-30"/>
     <use x="276.318359" xlink:href="#DejaVuSans-2e"/>
     <use x="308.105469" xlink:href="#DejaVuSans-37"/>
     <use x="371.728516" xlink:href="#DejaVuSans-2e"/>
     <use x="403.515625" xlink:href="#DejaVuSans-30"/>
     <use x="467.138672" xlink:href="#DejaVuSans-2d"/>
     <use x="503.222656" xlink:href="#DejaVuSans-53"/>
     <use x="566.699219" xlink:href="#DejaVuSans-4e"/>
     <use x="641.503906" xlink:href="#DejaVuSans-41"/>
     <use x="709.912109" xlink:href="#DejaVuSans-50"/>
     <use x="770.214844" xlink:href="#DejaVuSans-53"/>
     <use x="833.691406" xlink:href="#DejaVuSans-48"/>
     <use x="908.886719" xlink:href="#DejaVuSans-4f"/>
     <use x="987.597656" xlink:href="#DejaVuSans-54"/>
     <use x="1048.681641" xlink:href="#DejaVuSans-2c"/>
     <use x="1080.46875" xlink:href="#DejaVuSans-20"/>
     <use x="1112.255859" xlink:href="#DejaVuSans-65"/>
     <use x="1173.779297" xlink:href="#DejaVuSans-6c"/>
     <use x="1201.5625" xlink:href="#DejaVuSans-6b"/>
     <use x="1259.472656" xlink:href="#DejaVuSans-6a"/>
     <use x="1287.255859" xlink:href="#DejaVuSans-73"/>
     <use x="1339.355469" xlink:href="#DejaVuSans-3a"/>
     <use x="1373.046875" xlink:href="#DejaVuSans-20"/>
     <use x="1404.833984" xlink:href="#DejaVuSans-30"/>
     <use x="1468.457031" xlink:href="#DejaVuSans-2e"/>
     <use x="1500.244141" xlink:href="#DejaVuSans-37"/>
     <use x="1563.867188" xlink:href="#DejaVuSans-2e"/>
     <use x="1595.654297" xlink:href="#DejaVuSans-30"/>
     <use x="1659.277344" xlink:href="#DejaVuSans-2d"/>
     <use x="1695.361328" xlink:href="#DejaVuSans-53"/>
     <use x="1758.837891" xlink:href="#DejaVuSans-4e"/>
     <use x="1833.642578" xlink:href="#DejaVuSans-41"/>
     <use x="1902.050781" xlink:href="#DejaVuSans-50"/>
     <use x="1962.353516" xlink:href="#DejaVuSans-53"/>
     <use x="2025.830078" xlink:href="#DejaVuSans-48"/>
     <use x="2101.025391" xlink:href="#DejaVuSans-4f"/>
     <use x="2179.736328" xlink:href="#DejaVuSans-54"/>
     <use x="2240.820312" xlink:href="#DejaVuSans-2c"/>
     <use x="2272.607422" xlink:href="#DejaVuSans-20"/>
     <use x="2304.394531" xlink:href="#DejaVuSans-6a"/>
     <use x="2332.177734" xlink:href="#DejaVuSans-61"/>
     <use x="2393.457031" xlink:href="#DejaVuSans-76"/>
     <use x="2452.636719" xlink:href="#DejaVuSans-61"/>
     <use x="2513.916016" xlink:href="#DejaVuSans-3a"/>
     <use x="2547.607422" xlink:href="#DejaVuSans-20"/>
     <use x="2579.394531" xlink:href="#DejaVuSans-31"/>
     <use x="2643.017578" xlink:href="#DejaVuSans-2e"/>
     <use x="2674.804688" xlink:href="#DejaVuSans-38"/>
     <use x="2738.427734" xlink:href="#DejaVuSans-2e"/>
     <use x="2770.214844" xlink:href="#DejaVuSans-30"/>
     <use x="2833.837891" xlink:href="#DejaVuSans-5f"/>
     <use x="2883.837891" xlink:href="#DejaVuSans-32"/>
     <use x="2947.460938" xlink:href="#DejaVuSans-35"/>
     <use x="3011.083984" xlink:href="#DejaVuSans-32"/>
     <use x="3074.707031" xlink:href="#DejaVuSans-2c"/>
     <use x="3106.494141" xlink:href="#DejaVuSans-20"/>
     <use x="3138.28125" xlink:href="#DejaVuSans-6e"/>
     <use x="3201.660156" xlink:href="#DejaVuSans-6f"/>
     <use x="3262.841797" xlink:href="#DejaVuSans-64"/>
     <use x="3326.318359" xlink:href="#DejaVuSans-65"/>
     <use x="3387.841797" xlink:href="#DejaVuSans-3a"/>
     <use x="3421.533203" xlink:href="#DejaVuSans-20"/>
     <use x="3453.320312" xlink:href="#DejaVuSans-76"/>
     <use x="3512.5" xlink:href="#DejaVuSans-31"/>
     <use x="3576.123047" xlink:href="#DejaVuSans-32"/>
     <use x="3639.746094" xlink:href="#DejaVuSans-2e"/>
     <use x="3671.533203" xlink:href="#DejaVuSans-31"/>
     <use x="3735.15625" xlink:href="#DejaVuSans-38"/>
     <use x="3798.779297" xlink:href="#DejaVuSans-2e"/>
     <use x="3830.566406" xlink:href="#DejaVuSans-32"/>
    </g>
   </g>
  </g>
 </g>
 <defs>
  <clipPath id="p6044725421">
   <rect height="237.957286" width="384.496283" x="50.87" y="22.56"/>
  </clipPath>
 </defs>
</svg>
